<svg xmlns="http://www.w3.org/2000/svg" width="1975.926" height="1461.156" viewBox="0 0 1975.926 1461.156">
  <g id="Message_Sent" data-name="Message Sent" transform="translate(-459.574 -398.619)">
    <g id="shadow">
      <g id="Group_67" data-name="Group 67">
        <path id="Path_438" data-name="Path 438" d="M1180.1,722.9c30.6,30.1,78.8,14.5,36.9-26.9C1193.5,672.8,1145.5,688.9,1180.1,722.9Z" fill="#ebf2ff"/>
        <path id="Path_439" data-name="Path 439" d="M1364,722c16,7,31-36.4,11-40C1353.1,678,1341.6,712.2,1364,722Z" fill="#ebf2ff"/>
        <path id="Path_440" data-name="Path 440" d="M1298.9,812.4a39.168,39.168,0,0,0,7.7-.8c12.5-3.6,17.4-18.2.7-18.9-7.5-.3-26,.1-29.6,9.1C1274.2,810.6,1288.8,812.6,1298.9,812.4Z" fill="#ebf2ff"/>
        <path id="Path_441" data-name="Path 441" d="M1206.4,1048.6c59.7,19.2,145.8-10.5,174.4-68.9,25.6-52.3-11.3-31.7-38.9-18.2-32.2,15.8-67.5,26.3-103.5,27.1-36.2.8-72.5-8.4-102.3-29.5-12.9-9.2-30.7-40.7-47.2-22.1C1063.4,966,1178.3,1039.5,1206.4,1048.6Z" fill="#ebf2ff"/>
        <path id="Path_442" data-name="Path 442" d="M754.6,1216.7c76.9,15.2,150.7-21.7,200.6-79,18.8-21.6,111.1-151.2,69.6-174.8-7-4-111.8,44.1-178.8,97.1C830.8,1072,724.8,1210.8,754.6,1216.7Z" fill="#ebf2ff"/>
        <path id="Path_443" data-name="Path 443" d="M867.5,1295.6c-29.2,19.5,9.8,138.3,42.6,116.5C942,1390.9,903.2,1271.8,867.5,1295.6Z" fill="#ebf2ff"/>
        <path id="Path_444" data-name="Path 444" d="M879.6,1612.2c-6.8-54.2-70.6,28.2-83.6,39.9-28.8,26-95,84.1-76.3,130.2,20.2,49.9,61.8.6,77.2-23.6C821.4,1720.4,885.8,1660.9,879.6,1612.2Z" fill="#ebf2ff"/>
        <path id="Path_445" data-name="Path 445" d="M956.3,1406.9c2-14.5,27.4-124.2,2.1-123.9-22.2.3-23.3,103.4-25.5,119.1q-19.65,140.1-49.4,278.6c-5.4,25.1-36.2,103.6-19.5,119.7,20.3,19.5,34.6-76.6,37.8-91.1Q934.95,1559.15,956.3,1406.9Z" fill="#ebf2ff"/>
        <path id="Path_446" data-name="Path 446" d="M1072.3,1763.7c-29.7-8.4-130.2-43.8-150-8.8-20.8,36.7,45.9,73.6,70.1,86.3,30.2,15.8,73.5,28,105.5,8.6C1147.4,1820,1114.1,1775.4,1072.3,1763.7Z" fill="#ebf2ff"/>
        <path id="Path_447" data-name="Path 447" d="M1349.7,1569.1c-37.7,0-76.1,7.2-113,10.6-31.8,2.9-66.1,5.9-95.8,18.5-14.5,6.2-30.7,17.9-20.3,35.1,16.2,26.6,90.8,24.1,117.7,26.5,52.1,4.5,153.6,15.7,197.9-20.8,42-34.6-11-60-43.7-66.2A227.747,227.747,0,0,0,1349.7,1569.1Z" fill="#ebf2ff"/>
        <path id="Path_448" data-name="Path 448" d="M1670.2,1673.7c-109.7-59.1-68.6-185.5-64.5-286.1,1.2-29.7.4-127-37.1-139.3-38.5-12.7-9.7,91.5-9.2,109.5,1.8,58.4-8.4,116.4-15.9,174-5.8,44.9-23,112.2,2.3,154,20.3,33.5,94.8,66.8,133.7,69.9C1749.7,1761.5,1703.1,1691.5,1670.2,1673.7Z" fill="#ebf2ff"/>
        <path id="Path_449" data-name="Path 449" d="M1756.9,1439.5c-35.7-51.4-84.8,82.6-74,113.3C1707.5,1622.3,1787.5,1483.5,1756.9,1439.5Z" fill="#ebf2ff"/>
        <path id="Path_450" data-name="Path 450" d="M2080.1,1344.4a1029.829,1029.829,0,0,1-135.9-139.5c-15.2-18.9-44.7-80.9-64.8-90.8-22-10.8-20.8,2.4-15.2,20.7,15.3,50,77.8,106.8,112.8,144.4,21.7,23.2,44.1,47.6,69,67.3,5,3.9,17.6,20.2,25.7,18.3C2079.2,1363,2089.7,1352.6,2080.1,1344.4Z" fill="#ebf2ff"/>
        <path id="Path_451" data-name="Path 451" d="M2202.9,953.9c-27-24.8-57.4-65.1-97.5-40.5-21.4,13.1-70.5,81.4-64.9,107.3,11.7,53.8,59.7-6.4,84.8-15.3C2142.8,999.1,2255,1001.9,2202.9,953.9Z" fill="#ebf2ff"/>
        <path id="Path_452" data-name="Path 452" d="M2357.4,859.4c-7.8-29-66.4-55-92.5-40.7-40.2,21.9,8.8,48.4,17.3,72.8,6.4,18.5-15.4,84.1,21.7,79.7C2326.7,968.5,2362.9,880,2357.4,859.4Z" fill="#ebf2ff"/>
        <path id="Path_453" data-name="Path 453" d="M461,1469a1.5,1.5,0,0,0,0,3A1.5,1.5,0,0,0,461,1469Z" fill="#ebf2ff"/>
        <path id="Path_454" data-name="Path 454" d="M1592.8,1051.3c-17.6-21.1-100.1-108.3-132-93.6-9.7-1.8-11.6,6-9.1,18.3,1,29.5,35.5,82.3,46.3,96,32.3,41,78.3,95.3,129.3,83.2C1675,1144,1599.7,1059.6,1592.8,1051.3Z" fill="#ebf2ff"/>
      </g>
    </g>
    <g id="color_shadow">
      <g id="Group_68" data-name="Group 68">
        <path id="Path_455" data-name="Path 455" d="M2071.7,634.9c-9.4,2.1-11.1-12.8-1.7-14.9,23.7-5.3,47.6-9.7,71.5-13.6,83.4-13.8,249.4-49.8,249.7-50.2-14.9-1.7-367.1-61.2-400.4-65.9,9.3,14.5,56.2,77.8,41.6,102.2-11.3,30.6-17.6,47.2-25.7,71.5-9.7,29.1,61.1.5,81.9,5.7h.2c16.9,26.7,34.1,53.1,54.6,77.3,3.3,3.8,9.2,2.9,12.7,0,68.9-57,229.9-165.7,244.6-174.8C2398.8,572.5,2156.4,616,2071.7,634.9Z" fill="#cff1ff"/>
        <path id="Path_456" data-name="Path 456" d="M1166,587c70-22,286-4,228.5-124.3-8.7-18.3-63.1-65.4-76.6-49.2.9-1,3.2,19.8,2.4,22.6-8,25.6-25.4,33.4-51.5,38.2-49,9.1-104.3-5.1-146.8,27.8-22.9,17.7-69.4,99.3-50,132.8,9.5,16.4,30.4-1.5,41.5,5.6,14.6,9.4,6.1,21.1,14,29.1,9.7,9.9,11.2,18.1,19.2-2.4C1164.3,622,1146.3,593.2,1166,587Z" fill="#cff1ff"/>
      </g>
    </g>
    <g id="outline">
      <g id="Group_69" data-name="Group 69">
        <path id="Path_457" data-name="Path 457" d="M1122.8,646.9c-14.1-8.9-33.5-8.2-47,1.6-13.4,9.8-20,28.1-15.8,44.2,2.9,11.2,10.4,20.8,19.6,27.8a67.535,67.535,0,0,0,35,13.3" fill="none" stroke="#003188" stroke-linecap="round" stroke-linejoin="round" stroke-miterlimit="10" stroke-width="8"/>
        <path id="Path_458" data-name="Path 458" d="M1087,675c6.6,3.7,13.3,7.4,19.9,11.1" fill="none" stroke="#003188" stroke-linecap="round" stroke-linejoin="round" stroke-miterlimit="10" stroke-width="8"/>
        <path id="Path_459" data-name="Path 459" d="M1244.1,668.8a61.987,61.987,0,0,0,1.2,19.2,23.8,23.8,0,0,0-.3-20.2" fill="none" stroke="#003188" stroke-linecap="round" stroke-linejoin="round" stroke-miterlimit="10" stroke-width="8"/>
        <path id="Path_460" data-name="Path 460" d="M1212.8,635.6a119.789,119.789,0,0,1,51.6-12" fill="none" stroke="#003188" stroke-linecap="round" stroke-linejoin="round" stroke-miterlimit="10" stroke-width="8"/>
        <path id="Path_461" data-name="Path 461" d="M1352.8,611.9a70.818,70.818,0,0,0-39.6,10.8,11.546,11.546,0,0,0-4.3,3.9c-1.2,2.1-1.3,4.6-1.4,7-.2,8-.4,16.1,1.2,23.9,3.1,16.1,13.2,30.1,17.6,45.9.7,2.6,1.3,5.5.3,8-.8,2.2-2.7,3.8-4.5,5.3-5.9,5.1-11.9,10.3-17.8,15.4" fill="none" stroke="#003188" stroke-linecap="round" stroke-linejoin="round" stroke-miterlimit="10" stroke-width="8"/>
        <path id="Path_462" data-name="Path 462" d="M1338.7,662.4a67.462,67.462,0,0,0,.8,16.8,32.876,32.876,0,0,0-.1-18.9" fill="none" stroke="#003188" stroke-linecap="round" stroke-linejoin="round" stroke-miterlimit="10" stroke-width="8"/>
        <path id="Path_463" data-name="Path 463" d="M1267.8,759.9a101.325,101.325,0,0,0,50.4,2.4" fill="none" stroke="#003188" stroke-linecap="round" stroke-linejoin="round" stroke-miterlimit="10" stroke-width="8"/>
        <path id="Path_464" data-name="Path 464" d="M1375.2,563.2q3,73.65,6.1,147.3c1,24.4,2,49.2-3.2,73.1s-17.3,47.3-37.6,61c-21.9,14.8-50.7,16.4-76.3,9.8s-48.7-20.5-70.7-35.1" fill="none" stroke="#003188" stroke-linecap="round" stroke-linejoin="round" stroke-miterlimit="10" stroke-width="8"/>
        <path id="Path_465" data-name="Path 465" d="M1355.1,835.6a549.865,549.865,0,0,0,4.3,103.4" fill="none" stroke="#003188" stroke-linecap="round" stroke-linejoin="round" stroke-miterlimit="10" stroke-width="8"/>
        <path id="Path_466" data-name="Path 466" d="M1111.6,745.2a1527.511,1527.511,0,0,1,7.2,184" fill="none" stroke="#003188" stroke-linecap="round" stroke-linejoin="round" stroke-miterlimit="10" stroke-width="8"/>
        <path id="Path_467" data-name="Path 467" d="M1198.7,825.9c12.4,20.3,27.4,39.7,47.7,52.2,20.2,12.5,46.5,17.1,68.1,7.1,7.1-3.3,13.5-8,19.8-12.8,5.5-4.1,11-8.5,14.6-14.3s4.9-13.6,1.5-19.5c-18.9,19.2-47.9,26.4-74.6,22.7-26.7-3.6-51.3-16.8-72.7-33.3" fill="#003188" stroke="#003188" stroke-linecap="round" stroke-linejoin="round" stroke-miterlimit="10" stroke-width="8"/>
        <path id="Path_468" data-name="Path 468" d="M1105,930c-56,26-117.5,43.4-175.5,73.3-79.2,40.9-139.9,111.8-182,190.4s-67.2,165-89.3,251.4c-34,132.3-61.8,266.1-89.7,399.8" fill="none" stroke="#003188" stroke-linecap="round" stroke-linejoin="round" stroke-miterlimit="10" stroke-width="8"/>
        <path id="Path_469" data-name="Path 469" d="M872.9,1308.7a375.589,375.589,0,0,1,35.7,88.5" fill="none" stroke="#003188" stroke-linecap="round" stroke-linejoin="round" stroke-miterlimit="10" stroke-width="8"/>
        <path id="Path_470" data-name="Path 470" d="M948.1,1299.4q-44.7,244.8-91.9,489.1" fill="none" stroke="#003188" stroke-linecap="round" stroke-linejoin="round" stroke-miterlimit="10" stroke-width="8"/>
        <path id="Path_471" data-name="Path 471" d="M855.4,1617.2c-29.3,61-99,97.5-120.7,161.7" fill="none" stroke="#003188" stroke-linecap="round" stroke-linejoin="round" stroke-miterlimit="10" stroke-width="8"/>
        <path id="Path_472" data-name="Path 472" d="M796.2,1724.2a246.266,246.266,0,0,0-23.8,50.3" fill="none" stroke="#003188" stroke-linecap="round" stroke-linejoin="round" stroke-miterlimit="10" stroke-width="8"/>
        <path id="Path_473" data-name="Path 473" d="M1118.9,944.2c36.1,21.8,76.3,38.2,118.4,41.8s86.2-6.5,119.2-32.7" fill="none" stroke="#003188" stroke-linecap="round" stroke-linejoin="round" stroke-miterlimit="10" stroke-width="8"/>
        <path id="Path_474" data-name="Path 474" d="M1155.8,985.6c40.6,33.2,98.5,44.1,148.3,27.8" fill="none" stroke="#003188" stroke-linecap="round" stroke-linejoin="round" stroke-miterlimit="10" stroke-width="8"/>
        <path id="Path_475" data-name="Path 475" d="M1558.4,1250.7c24.5,195.7-37.4,390.5-62.5,586.1" fill="none" stroke="#003188" stroke-linecap="round" stroke-linejoin="round" stroke-miterlimit="10" stroke-width="8"/>
        <path id="Path_476" data-name="Path 476" d="M1145.3,1614.4a909.148,909.148,0,0,1,257.3-23.4" fill="none" stroke="#003188" stroke-linecap="round" stroke-linejoin="round" stroke-miterlimit="10" stroke-width="8"/>
        <path id="Path_477" data-name="Path 477" d="M1213.9,1640a218.977,218.977,0,0,1,102.4,4" fill="none" stroke="#003188" stroke-linecap="round" stroke-linejoin="round" stroke-miterlimit="10" stroke-width="8"/>
        <path id="Path_478" data-name="Path 478" d="M938.9,1758c57.1,2.7,116.3,6,166.9,32.6,1.8.9,3.8,2.2,3.9,4.2.2,2.4-2.2,4-4.3,5.1-31.2,16.1-66.7,21.5-101.5,26.6a211.487,211.487,0,0,0,51.6,19.4" fill="none" stroke="#003188" stroke-linecap="round" stroke-linejoin="round" stroke-miterlimit="10" stroke-width="8"/>
        <path id="Path_479" data-name="Path 479" d="M1376.2,940.2c101.1,6.3,191.9,71.5,249,155.1,57,83.7,84.2,184.1,100.2,284.1" fill="none" stroke="#003188" stroke-linecap="round" stroke-linejoin="round" stroke-miterlimit="10" stroke-width="8"/>
        <path id="Path_480" data-name="Path 480" d="M1640.9,1540q117.45-182.4,235-364.7" fill="none" stroke="#003188" stroke-linecap="round" stroke-linejoin="round" stroke-miterlimit="10" stroke-width="8"/>
        <path id="Path_481" data-name="Path 481" d="M1883.4,1113.4a2259.906,2259.906,0,0,0,186,219.2" fill="none" stroke="#003188" stroke-linecap="round" stroke-linejoin="round" stroke-miterlimit="10" stroke-width="8"/>
        <path id="Path_482" data-name="Path 482" d="M1866.5,1156.2a1009.6,1009.6,0,0,0,171.7,207.7" fill="none" stroke="#003188" stroke-linecap="round" stroke-linejoin="round" stroke-miterlimit="10" stroke-width="8"/>
        <path id="Path_483" data-name="Path 483" d="M2011.2,1350.5c-43.4,105.9-87.1,212.4-147.6,309.6-21.4,34.4-46.5,69-83,86.7-38.4,18.6-84.5,15.6-124.7,1.2-40.2-14.3-75.8-39-110.8-63.3" fill="none" stroke="#003188" stroke-linecap="round" stroke-linejoin="round" stroke-miterlimit="10" stroke-width="8"/>
        <path id="Path_484" data-name="Path 484" d="M1719,1452.9a208.592,208.592,0,0,0-32.8,110.9" fill="none" stroke="#003188" stroke-linecap="round" stroke-linejoin="round" stroke-miterlimit="10" stroke-width="8"/>
        <path id="Path_485" data-name="Path 485" d="M1679.6,1583.9" fill="none" stroke="#003188" stroke-linecap="round" stroke-linejoin="round" stroke-miterlimit="10" stroke-width="8"/>
        <path id="Path_486" data-name="Path 486" d="M1326.3,1009.8" fill="none" stroke="#003188" stroke-linecap="round" stroke-linejoin="round" stroke-miterlimit="10" stroke-width="8"/>
        <path id="Path_487" data-name="Path 487" d="M916.6,1029.5a145.744,145.744,0,0,0-35.9,30.5" fill="none" stroke="#003188" stroke-linecap="round" stroke-linejoin="round" stroke-miterlimit="10" stroke-width="8"/>
        <path id="Path_488" data-name="Path 488" d="M1915.9,1127.8q22.05-26.1,46.4-50" fill="none" stroke="#003188" stroke-linecap="round" stroke-linejoin="round" stroke-miterlimit="10" stroke-width="8"/>
        <path id="Path_489" data-name="Path 489" d="M1968.6,1079c-23.7-55.3-9.4-124.7,34.3-166,10.8-10.2,23-18.7,35.2-27.1q39-27.15,78-54.2c6.5-4.5,15.8-9,21.7-3.7,2.9,2.6,3.8,6.9,3.8,10.8,0,9.3-4.2,18-8.7,26.1a239.848,239.848,0,0,1-63,72.6" fill="none" stroke="#003188" stroke-linecap="round" stroke-linejoin="round" stroke-miterlimit="10" stroke-width="8"/>
        <path id="Path_490" data-name="Path 490" d="M2062.4,968.1a89.257,89.257,0,0,0,9.9-32.3" fill="none" stroke="#003188" stroke-linecap="round" stroke-linejoin="round" stroke-miterlimit="10" stroke-width="8"/>
        <path id="Path_491" data-name="Path 491" d="M2114.6,907.3a990.045,990.045,0,0,1,154.5-85.5c6-2.7,12.3-5.3,18.9-5.6s13.7,2.2,17.1,7.9c4.9,8,.5,18.5-5.3,25.9-9.6,12.2-22.9,20.9-36,29.4l-84.9,55.2" fill="none" stroke="#003188" stroke-linecap="round" stroke-linejoin="round" stroke-miterlimit="10" stroke-width="8"/>
        <path id="Path_492" data-name="Path 492" d="M2339.5,837.9c6.7-1.2,13.3,3.8,15.6,10.2s.7,13.6-2.6,19.5c-3.2,5.9-8,10.8-12.7,15.7-1.3,1.3-2.6,2.9-2.5,4.8.1,1.5,1.3,2.7,2.3,3.9,4.5,5.7,4.6,14.1,1.9,20.8-2.7,6.8-7.8,12.3-13.1,17.3" fill="none" stroke="#003188" stroke-linecap="round" stroke-linejoin="round" stroke-miterlimit="10" stroke-width="8"/>
        <path id="Path_493" data-name="Path 493" d="M2321.3,889.6q-55.35,44.25-114,84.2" fill="none" stroke="#003188" stroke-linecap="round" stroke-linejoin="round" stroke-miterlimit="10" stroke-width="8"/>
        <path id="Path_494" data-name="Path 494" d="M2225.8,998q36.6-24.75,74.4-47.3" fill="none" stroke="#003188" stroke-linecap="round" stroke-linejoin="round" stroke-miterlimit="10" stroke-width="8"/>
        <path id="Path_495" data-name="Path 495" d="M2318.2,953.1c2.1,10.1-3.9,20.1-10.9,27.8-17.6,19.4-42,31.1-63.3,46.4-27.6,19.7-50.2,45.5-75.3,68.4-25.1,22.8-54.2,43.3-87.7,48.8" fill="none" stroke="#003188" stroke-linecap="round" stroke-linejoin="round" stroke-miterlimit="10" stroke-width="8"/>
        <path id="Path_496" data-name="Path 496" d="M2110.4,1156.2q-32.1,67.8-69.2,132.9" fill="none" stroke="#003188" stroke-linecap="round" stroke-linejoin="round" stroke-miterlimit="10" stroke-width="8"/>
        <path id="Path_497" data-name="Path 497" d="M2060.9,1041.8a153.136,153.136,0,0,1,84.1-35.7" fill="none" stroke="#003188" stroke-linecap="round" stroke-linejoin="round" stroke-miterlimit="10" stroke-width="8"/>
        <path id="Path_498" data-name="Path 498" d="M2163.1,923.4a402.758,402.758,0,0,1,62,83" fill="none" stroke="#003188" stroke-linecap="round" stroke-linejoin="round" stroke-miterlimit="10" stroke-width="8"/>
        <path id="Path_499" data-name="Path 499" d="M846.2,924.5c-1.4,1.8.1,5,2.4,5.1a3.318,3.318,0,0,0,3-4.7" fill="none" stroke="#003188" stroke-linecap="round" stroke-linejoin="round" stroke-miterlimit="10" stroke-width="8"/>
        <path id="Path_500" data-name="Path 500" d="M1478.8,550" fill="none" stroke="#003188" stroke-linecap="round" stroke-linejoin="round" stroke-miterlimit="10" stroke-width="8"/>
        <path id="Path_501" data-name="Path 501" d="M1435.1,894.6c-1.6,1-.8,4.1,1.1,4.1s2.7-3.1,1.1-4.1" fill="none" stroke="#003188" stroke-linecap="round" stroke-linejoin="round" stroke-miterlimit="10" stroke-width="8"/>
        <path id="Path_502" data-name="Path 502" d="M1790.5,1025.1c-2.6-1.6-6.4,1.4-5.6,4.3.9,2.9,5.7,3.2,7,.5" fill="none" stroke="#003188" stroke-linecap="round" stroke-linejoin="round" stroke-miterlimit="10" stroke-width="8"/>
        <path id="Path_503" data-name="Path 503" d="M1597.7,1796.1c-2.8.6,1.2,5.2,3.2,3.1s.7-5.5-.6-8.1" fill="none" stroke="#003188" stroke-linecap="round" stroke-linejoin="round" stroke-miterlimit="10" stroke-width="8"/>
        <path id="Path_504" data-name="Path 504" d="M2166.6,1265.8c-3,1.2,2.9,5.4,3.1,2.2" fill="none" stroke="#003188" stroke-linecap="round" stroke-linejoin="round" stroke-miterlimit="10" stroke-width="8"/>
      </g>
      <path id="Path_505" data-name="Path 505" d="M1551,1219.7a9.171,9.171,0,0,0,1.9,8.4" fill="none" stroke="#003188" stroke-linecap="round" stroke-linejoin="round" stroke-miterlimit="10" stroke-width="8"/>
      <path id="Path_506" data-name="Path 506" d="M1321.5,1009.1l6.3-4.2" fill="none" stroke="#003188" stroke-linecap="round" stroke-linejoin="round" stroke-miterlimit="10" stroke-width="8"/>
      <path id="Path_507" data-name="Path 507" d="M1421.6,1590.9h4.2" fill="none" stroke="#003188" stroke-linecap="round" stroke-linejoin="round" stroke-miterlimit="10" stroke-width="8"/>
      <path id="Path_508" data-name="Path 508" d="M1688.6,1582.6" fill="none" stroke="#003188" stroke-linecap="round" stroke-linejoin="round" stroke-miterlimit="10" stroke-width="8"/>
      <path id="Path_509" data-name="Path 509" d="M862.8,1292.3V1290" fill="none" stroke="#003188" stroke-linecap="round" stroke-linejoin="round" stroke-miterlimit="10" stroke-width="8"/>
      <path id="Path_510" data-name="Path 510" d="M643,1652.4c-2.3,6.3-4.5,12.5-6.8,18.8" fill="none" stroke="#003188" stroke-linecap="round" stroke-linejoin="round" stroke-miterlimit="10" stroke-width="8"/>
      <path id="Path_511" data-name="Path 511" d="M2085.9,1540.2" fill="none" stroke="#003188" stroke-linecap="round" stroke-linejoin="round" stroke-miterlimit="10" stroke-width="8"/>
    </g>
    <g id="color_outline">
      <g id="Group_71" data-name="Group 71">
        <g id="Group_70" data-name="Group 70">
          <path id="Path_512" data-name="Path 512" d="M1129.1,660.2a65.247,65.247,0,0,0,3.7,22.3c.3.8.7,1.8,1.5,2,1.1.4,2.2-.6,3-1.6,7.6-10,9.6-23.2,10.6-35.7a359.04,359.04,0,0,0,.2-56.8" fill="none" stroke="#24bdff" stroke-linecap="round" stroke-linejoin="round" stroke-miterlimit="10" stroke-width="8"/>
          <path id="Path_513" data-name="Path 513" d="M1068.2,637.2c-5-34.1-1.8-69.8,12.3-101.2s39.6-58.3,71.6-71c21.6-8.6,45.3-10.6,68.5-10.1,32.3.7,68,5.1,93.7-14.5" fill="none" stroke="#24bdff" stroke-linecap="round" stroke-linejoin="round" stroke-miterlimit="10" stroke-width="8"/>
          <path id="Path_514" data-name="Path 514" d="M1165.7,587.3c44.1-16.2,92.4-14,139-19.9,20.7-2.6,41.5-7,59.5-17.6,18-10.5,32.8-28.1,35.7-48.7,3.2-22.3-8-44.7-24-60.6s-36.5-26.3-56.5-36.5" fill="none" stroke="#24bdff" stroke-linecap="round" stroke-linejoin="round" stroke-miterlimit="10" stroke-width="8"/>
          <path id="Path_515" data-name="Path 515" d="M1317,404.7a22.2,22.2,0,0,1,4.5,19.5" fill="none" stroke="#24bdff" stroke-linecap="round" stroke-linejoin="round" stroke-miterlimit="10" stroke-width="8"/>
          <path id="Path_516" data-name="Path 516" d="M1286.8,473.9c-2.4,13.1-11.3,24.1-21.4,32.8-33.2,28.6-78.9,36.3-121.2,47.8" fill="none" stroke="#24bdff" stroke-linecap="round" stroke-linejoin="round" stroke-miterlimit="10" stroke-width="8"/>
          <path id="Path_517" data-name="Path 517" d="M1322,465.7c1.2,6.5-2.4,12.8-6.2,18.2a151.863,151.863,0,0,1-71.1,54.6" fill="none" stroke="#24bdff" stroke-linecap="round" stroke-linejoin="round" stroke-miterlimit="10" stroke-width="8"/>
          <path id="Path_518" data-name="Path 518" d="M1346.2,480a79.251,79.251,0,0,1-27.6,32.3" fill="none" stroke="#24bdff" stroke-linecap="round" stroke-linejoin="round" stroke-miterlimit="10" stroke-width="8"/>
          <path id="Path_519" data-name="Path 519" d="M1121.7,590.1a47.7,47.7,0,0,1,2.4,29.6" fill="none" stroke="#24bdff" stroke-linecap="round" stroke-linejoin="round" stroke-miterlimit="10" stroke-width="8"/>
          <path id="Path_520" data-name="Path 520" d="M1665.6,817.3a391.8,391.8,0,0,0,131.3-7.2c44.1-10,88.6-29.4,115.2-66,4.7-6.5,9-14.3,7.5-22.2-2.5-13.3-19-18.4-32.6-18.3-9.9.1-20.1,1.6-28.4,6.9s-14.3,15.2-12.7,25c2.4,14.3,18.8,21.7,33.3,23,37.3,3.4,73.1-16.5,101.4-41.1" fill="none" stroke="#24bdff" stroke-linecap="round" stroke-linejoin="round" stroke-miterlimit="10" stroke-width="8"/>
          <path id="Path_521" data-name="Path 521" d="M1762.9,831a366.591,366.591,0,0,1-144.3,23.8" fill="none" stroke="#24bdff" stroke-linecap="round" stroke-linejoin="round" stroke-miterlimit="10" stroke-width="8"/>
          <path id="Path_522" data-name="Path 522" d="M2062.5,619.8l369-70-290,204-52.7-89.4-26.3-44.6-59,59,85-14" fill="none" stroke="#24bdff" stroke-linecap="round" stroke-linejoin="round" stroke-miterlimit="10" stroke-width="8"/>
          <path id="Path_523" data-name="Path 523" d="M2003.5,678.8l35-107,393-22-455-83,62,105" fill="none" stroke="#24bdff" stroke-linecap="round" stroke-linejoin="round" stroke-miterlimit="10" stroke-width="8"/>
        </g>
      </g>
    </g>
  </g>
</svg>
