<svg xmlns="http://www.w3.org/2000/svg" width="1724.734" height="1396.743" viewBox="0 0 1724.734 1396.743">
  <g id="Welcome" transform="translate(-615.125 -372.264)">
    <g id="shadow">
      <g id="Group_355" data-name="Group 355">
        <path id="Path_2818" data-name="Path 2818" d="M1574.6,733.5c-12.8,2.3-27.2,12.6-31.2,25.3-4.1,12.9,3,24.8,17.1,24,13.7-.8,28-12.1,32.9-24.8C1598.7,744.4,1590,730.7,1574.6,733.5Z" fill="#ebf2ff"/>
        <path id="Path_2819" data-name="Path 2819" d="M1435.3,766.2c11.4-21.1-22.5-65.1-33.3-35.8a37.063,37.063,0,0,0,5.5,35.6C1414.7,775.4,1428.7,778.4,1435.3,766.2Zm-21.4-10.6a.188.188,0,0,1,0-.3Z" fill="#ebf2ff"/>
        <path id="Path_2820" data-name="Path 2820" d="M1489.1,842.5c-7.2,0-14.2-4.3-19.1,4.3-6.8,12,7,18.8,16.7,19.6,9.6.8,26.6-2.8,22.7-16.4C1506.3,839.1,1497.1,842.7,1489.1,842.5Z" fill="#ebf2ff"/>
        <path id="Path_2821" data-name="Path 2821" d="M960.6,1388.1c-30.1-5.6-73.6-5.4-100.2,12.1-23.2,15.2-1,48.6,10.5,64.5,20.2,27.9,45.6,47.7,80.5,52.6,34.3,4.9,96.3-9.1,101.4-51.5C1058.1,1421.1,995.4,1394.5,960.6,1388.1Z" fill="#ebf2ff"/>
        <path id="Path_2822" data-name="Path 2822" d="M1859.5,1510.9c-4.7-37.7-6.7-75.7-9.5-113.6-1.1-15-2.4-30.3-6.9-44.7-2.5-8.1-12.2-33.9-23.4-33-9.7.8-6.7,25.7-6.8,31.7q-.75,33.75-1.7,67.5c-1.4,58.4-1.1,116.8-2.7,175.2-1.1,39.2-5.3,78.9-1.1,118,1.7,15.6,3.9,34.7,11.7,48.7,10,18.1,25.9,2.5,35.4-7.9,26.8-29.2,31.9-70,27.9-108C1877.7,1599.9,1865.1,1555.9,1859.5,1510.9Z" fill="#ebf2ff"/>
        <path id="Path_2823" data-name="Path 2823" d="M1918.1,1119" fill="#ebf2ff"/>
        <path id="Path_2824" data-name="Path 2824" d="M1932.2,1103.2c-29.9-48.1-71.2-91.1-123.7-115.7a221.792,221.792,0,0,0-34.7-12.8,310.523,310.523,0,0,0-60-5.2c-7.1,0-15.8-.5-24.5-.6-12.5,0-25.3,1.1-34.3,7.2a15.6,15.6,0,0,0-3,2.6c-11.2,13,16.9,35.6,25.3,43.5,33.9,31.8,75.8,51.5,118.5,68.7,27.5,11,55.5,21.1,84.1,29.1,15,4.2,30.4,10.2,46.2,9.9,10.6-.2,14.8-4.8,15.5-11C1938.6,1113.6,1935.5,1108.4,1932.2,1103.2Z" fill="#ebf2ff"/>
        <path id="Path_2825" data-name="Path 2825" d="M1120.1,1037.3c77.8,41.9,170.2,35.6,245.3-9.1,10.5-6.2,38.2-19.4,22.5-34-6.7-6.2-20.3-9.8-28.8-13a265.09,265.09,0,0,0-31.1-9.5c-43.7-10.4-85.7-6.8-127.4,9.7-22.5,8.9-42.4,17.4-64.5,32.5-5.2,3.6-12.1,5.6-17.3,10.4C1113,1029.5,1112.9,1033.4,1120.1,1037.3Z" fill="#ebf2ff"/>
        <path id="Path_2826" data-name="Path 2826" d="M792.2,849.9c-23.1-1.6-45.7,6.8-66.1,16.8-14.6,7.1-41.8,17.1-41.7,36.8.1,23.4,20.9,47.2,31.6,66.9,7.8,14.4,16.8,29.1,30.9,38,14.6,9.3,32.2,8.6,45.2-3.1,14.3-12.8,17.7-31.4,17.2-49.6-.5-18.1-.5-33.9,6-51.2C823.2,883.2,821.2,851.9,792.2,849.9Z" fill="#ebf2ff"/>
        <path id="Path_2827" data-name="Path 2827" d="M809.3,738.8c3.8-16.3,1-31.5-5.1-46.7-5.1-12.7-20-15-23.7.4-3.4,14.1-.8,34.1,5.9,46.9C791.1,748.3,806.4,751.6,809.3,738.8Z" fill="#ebf2ff"/>
        <path id="Path_2828" data-name="Path 2828" d="M695,758.5c-3.1-10.4-3.1-20.4-4.9-30.9,4,12,17,28.2,29.7,15,9.3-9.6,7.4-29.7,5-41.3-3.3-15.4-10.1-30.7-28.6-24.7-15.4,5.1-10.3,36.5-7,48-3-6.4-12-8.6-17.8-4.8-9.4,6.1-4.2,24-2.5,32.7,1.7,8.6,3.1,20.8,14.3,20.9C691.1,773.4,697.3,766.3,695,758.5Z" fill="#ebf2ff"/>
        <path id="Path_2829" data-name="Path 2829" d="M637.3,799c-4.6-7.9-16.2-7.2-20.7.4-5.9,10,7.5,25.6,11.5,34.7,2.4,5.6,4.3,11.7,11,13.2a12.052,12.052,0,0,0,13.7-7.4C657,828.8,642.7,808.3,637.3,799Z" fill="#ebf2ff"/>
        <path id="Path_2830" data-name="Path 2830" d="M1382.2,1536.3c-36.3-25.4-80.4-36.1-121.4-51.3-15.7-5.8-31.6-20.4-48.1-18.7-7.4.8-14,4.6-12.8,13.4,1.1,8.2,12.1,14.3,18.1,19a382.647,382.647,0,0,0,108.1,58.9c15.3,5.3,41.9,17.4,58.1,12.7C1405.6,1564,1394.2,1544.6,1382.2,1536.3Zm-4.6,10.9c.1,0,.1-.1.2-.1C1378.6,1547.5,1378.2,1547.4,1377.6,1547.2Zm-5.1,11.5c.6.4,1.1.8,1.7,1.2A2.453,2.453,0,0,1,1372.5,1558.7Z" fill="#ebf2ff"/>
        <path id="Path_2831" data-name="Path 2831" d="M1690,1503.8a338.574,338.574,0,0,0-80.1,50.3c-9.8,8.2-27.6,20.2-32.9,32.1-4.3,9.6,4.7,20.9,15.1,17,5.8-2.2,11-10.3,15.4-14.5,5.6-5.5,11.4-10.7,17.4-15.7a332.916,332.916,0,0,1,37.9-27.5c6.6-4.1,13.4-8,20.3-11.7,5.8-3,15.5-5.8,20.3-10.2C1714,1514,1703.5,1497.8,1690,1503.8Z" fill="#ebf2ff"/>
        <path id="Path_2832" data-name="Path 2832" d="M1687.7,1535.5a249.855,249.855,0,0,0-63.5,52.3c-6.5,7.5-21.3,21-21.3,31.5.1,15.5,16.7,12.8,23.7,4.3,17.5-21.1,33.5-40.7,56.2-56.6,7.5-5.2,22.7-10.1,22.7-20.9C1705.5,1537.2,1695.6,1531,1687.7,1535.5Z" fill="#ebf2ff"/>
        <path id="Path_2833" data-name="Path 2833" d="M1810.2,1299.3c-3.4-12.4-22.8-71.1-43.1-55.7-11,8.3,0,19.3,4.9,27.3,6.8,11.3,11.1,23.2,15.3,35.6-7.3-9.9-20.9-31.1-33.9-33.1a11.935,11.935,0,0,0-13.3,8.6c-2.1,7.5,3.2,11.6,8.1,16.2a172.946,172.946,0,0,1,15.4,16.6c4.2,5.2,7.7,13.3,13.5,16.7,14.2,8.5,21.5-8.9,14.2-19.5C1800.1,1318.4,1813.2,1309.9,1810.2,1299.3Z" fill="#ebf2ff"/>
        <path id="Path_2834" data-name="Path 2834" d="M1613.2,1058.3c-4.9-17.9-36.1-.4-46.6,2.5-25.3,7-52.4,10.6-78.5,6.1a109.351,109.351,0,0,1-41.6-15.9c-9.2-6-23.2-25.6-34.3-12-19.9,24.4,62.5,48.1,76.8,50.2,23.1,3.3,46.6,1.6,69.4-3C1570.7,1083.6,1618.5,1077.7,1613.2,1058.3Z" fill="#ebf2ff"/>
        <path id="Path_2835" data-name="Path 2835" d="M1269.9,1704.6c-8.9-11.6-37-45.2-54.3-37.9-25.5,10.9,21.1,36.1,27.7,43.1-8.2-4.3-21-13.3-27.9-1.7-5.9,10,3.7,16.1,11.2,20.1,8.6,4.5,22.6,15.8,32.7,14.8,10.5-1.1,14.9-15.6,5.7-21.7C1270.5,1718.5,1274,1710,1269.9,1704.6Z" fill="#ebf2ff"/>
        <path id="Path_2836" data-name="Path 2836" d="M1155.6,1170.4c-24.9-14.6-43.3,83.8-45.6,99.3a326.51,326.51,0,0,0-3.5,64.8c.6,14.2-1.5,45.9,15,52.4,38.5,15.3,26.7-80.4,26.2-95.9-.6-22.7-1-45.6,1.9-68.2,1.2-9.6,2.6-18.4,6.4-27.2C1159.3,1187.7,1166,1176.5,1155.6,1170.4Zm-22,197.2a.368.368,0,0,1,.1-.3A.368.368,0,0,0,1133.6,1367.6Z" fill="#ebf2ff"/>
        <path id="Path_2837" data-name="Path 2837" d="M1430.3,625.5c36,1.6,70.6-12.6,106.7-11,26.4,1.2,64.4,7.8,80.8,31.3,9,12.9,11.1,31.1,7.7,46.2-2.5,11.1-10.6,23.1-7.5,34.9,4.1,15.9,20.2,8.9,27.8.4,10.1-11.2,15.4-26.1,21.9-39.4,27.5-55.7,14-120.7-43.5-150.8-28.6-15-60.3-16.5-91.8-12.3-16.4,2.2-32.7,5.7-49.1,8.1s-28.4,4.3-38.1-10.6c-8.1-12.6-21.1-19.9-34-8.1-10.1,9.3-14.8,26.7-18.1,39.5C1385.1,585,1391.4,623.8,1430.3,625.5Z" fill="#ebf2ff"/>
      </g>
    </g>
    <g id="color_shadow">
      <g id="Group_356" data-name="Group 356">
        <path id="Path_2838" data-name="Path 2838" d="M955.9,616.7a7.344,7.344,0,0,0-6.6-.8,17.346,17.346,0,0,0-10.7,21.2c2.7,8.8,12.6,13.2,21.1,10,9.5-3.5,14-14.4,8.7-23.4A13.961,13.961,0,0,0,955.9,616.7Zm-.8,16.2a4.907,4.907,0,0,0-1,.4l1.2-.6C955.3,632.8,955.2,632.8,955.1,632.9Z" fill="#cff1ff"/>
        <path id="Path_2839" data-name="Path 2839" d="M1133,701.6c3.7-3.2,3.2-9.5,0-12.7-3.7-3.7-9-3.2-12.7,0-12,10.2-10.7,27.6-4.8,40.7,4.9,10.9,19.6,26.5,11.6,39-6.3,9.8,9.3,18.8,15.5,9.1,9.1-14.2,3.2-30.8-4.4-44C1133.2,725,1122.9,710.1,1133,701.6Z" fill="#cff1ff"/>
        <path id="Path_2840" data-name="Path 2840" d="M1061.8,905.8a9.159,9.159,0,0,0-9-9c-12.8.1-19.5,16.5-10.6,25.6,3.3,3.4,9.5,3.6,12.7,0a9.4,9.4,0,0,0,2.3-8.8A8.959,8.959,0,0,0,1061.8,905.8Z" fill="#cff1ff"/>
        <path id="Path_2841" data-name="Path 2841" d="M1289.7,736a9.65,9.65,0,0,0-4.1-5.4,9.044,9.044,0,0,0-12.3,3.2,8.809,8.809,0,0,0-.9,6.9c.5,1.4,1,2.9,1.4,4.3a9.65,9.65,0,0,0,4.1,5.4,9.044,9.044,0,0,0,12.3-3.2,8.809,8.809,0,0,0,.9-6.9C1290.6,738.9,1290.1,737.5,1289.7,736Z" fill="#cff1ff"/>
        <path id="Path_2842" data-name="Path 2842" d="M1287,586.2c3.8-15.3-4.1-28.7-13.7-39.9-6.7-7.8-20-20.1-13-31.5,6.1-9.9-9.4-18.9-15.5-9.1-8.2,13.3-3.4,29.3,5.4,40.9,7.1,9.4,22.8,21.2,19.5,34.7C1266.9,592.7,1284.2,597.5,1287,586.2Z" fill="#cff1ff"/>
        <path id="Path_2843" data-name="Path 2843" d="M1857.5,518c-4.3,2.5-5.1,7.3-3.5,11.6a3.257,3.257,0,0,1-.3,1c-.4.7-.7,1.4-1.1,2.1a52.123,52.123,0,0,1-4,6,53.959,53.959,0,0,1-9.3,9.2c-6.7,5.1-14.3,9.1-20.2,15.2-15.3,16.1-9.5,36.8-1.8,54.9,1.9,4.5,8.5,5.5,12.3,3.2,4.6-2.7,5.1-7.8,3.2-12.3-3.2-7.6-7.3-17.2-5.3-25.6,1.8-7.4,8.9-11.7,14.8-15.7,13.9-9.4,35.8-27.4,27.5-46.4C1867.8,516.8,1861.3,515.8,1857.5,518Zm-3.5,11.5c-.1-.1,0-.1,0,0Z" fill="#cff1ff"/>
        <path id="Path_2844" data-name="Path 2844" d="M1728,833.1c-7.9-8.5-20.6,4.3-12.7,12.7a62.848,62.848,0,0,1,15.9,32.3c.9,4.8,6.7,7.5,11.1,6.3,5-1.4,7.2-6.3,6.3-11.1A81.223,81.223,0,0,0,1728,833.1Z" fill="#cff1ff"/>
        <path id="Path_2845" data-name="Path 2845" d="M2107.8,666.4c-6-4.3-12.9-7-19.7-10-4.6-2.1-10.9-4.5-12.3-9.8-3-11.2-20.4-6.4-17.4,4.8,3.7,13.8,16.8,18.6,28.5,24,9.9,4.5,24.1,13,18.7,25.9-1.9,4.5,2,9.9,6.3,11.1,5.2,1.4,9.2-1.8,11.1-6.3C2129.4,690.9,2120,675.2,2107.8,666.4Z" fill="#cff1ff"/>
        <path id="Path_2846" data-name="Path 2846" d="M1984.9,946.3c-4.6,1.7-7.7,6.1-6.3,11.1,1.2,4.4,6.5,8,11.1,6.3,20.2-7.4,43.8,1.2,54,20.2,5.5,10.2,21,1.1,15.5-9.1C2045.4,949.2,2012.3,936.2,1984.9,946.3Z" fill="#cff1ff"/>
        <path id="Path_2847" data-name="Path 2847" d="M2266.2,937.1c-4.1-2.1-10.1-1.3-12.3,3.2-1.4,2.9-2.9,5.8-4.3,8.7-2.1,4.2-1.3,9.9,3.2,12.3,4.1,2.1,10.1,1.3,12.3-3.2,1.4-2.9,2.9-5.8,4.3-8.7C2271.5,945.2,2270.7,939.5,2266.2,937.1Z" fill="#cff1ff"/>
        <path id="Path_2848" data-name="Path 2848" d="M2232.4,1176.7a47.625,47.625,0,0,1-9.9-33.9,7.518,7.518,0,0,0-2.1-5.7l1-1c3.7-3.2,3.3-9.5,0-12.7-3.7-3.7-9-3.2-12.7,0-9.9,8.5-15.1,21.5-15.1,34.4,0,13.9,6.2,24.5,15.5,34.3,1.5,1.6,3.7,3.5,4.4,5.7.4,1.3,0,1.5-1.4,2.7-3.9,3.3-9.4,5.4-13.4,9.2a21.267,21.267,0,0,0-5.9,9.7c-2.4,1.7-4.1,4.3-3.8,7.2,1.6,12.9,9.9,23.8,22.7,27.2a9.4,9.4,0,0,0,5,0c.8,7-2.5,14.5-9.9,17.5-4.5,1.8-7.7,6-6.3,11.1,1.2,4.3,6.5,8.1,11.1,6.3a38.755,38.755,0,0,0,19.8-17.8,7.557,7.557,0,0,0,1.8-2.4,28.959,28.959,0,0,0-4.9-34.7c-.3-.3-2.8-2.9-4.2-4.2.9-.8,2.4-2.8,2.9-3.3,5.1-5.3,10.8-10.3,15-16.3,4.1-5.9,5.1-13.2,1.8-19.7C2241.2,1184.9,2236.1,1181.4,2232.4,1176.7Z" fill="#cff1ff"/>
        <path id="Path_2849" data-name="Path 2849" d="M2316,1418.5a133.947,133.947,0,0,0-18.1,44.1c-2.4,11.3,15,16.1,17.4,4.8a117.491,117.491,0,0,1,16.3-39.8C2337.8,1417.8,2322.2,1408.7,2316,1418.5Z" fill="#cff1ff"/>
        <path id="Path_2850" data-name="Path 2850" d="M2103.7,1493.8a9.191,9.191,0,0,0-6.9.9,10.112,10.112,0,0,0-4.1,5.4c-1,2.4-1.9,4.8-2.9,7.2-.8,2-.1,5.1.9,6.9a8.941,8.941,0,0,0,5.4,4.1,9.191,9.191,0,0,0,6.9-.9,10.112,10.112,0,0,0,4.1-5.4c1-2.4,1.9-4.8,2.9-7.2.8-2,.1-5.1-.9-6.9A9.328,9.328,0,0,0,2103.7,1493.8Z" fill="#cff1ff"/>
        <path id="Path_2851" data-name="Path 2851" d="M2178.2,1630.9c-10.5,3.1-19.8,9.2-25.1,19.1-4.9,9-6.2,19.5-6.2,29.7,0,16.7,6.5,39.9-7.7,52.7-8.6,7.8,4.1,20.5,12.7,12.7,15.1-13.6,14.9-35,13.5-53.6-.6-8.6-1.2-17.6.9-26.1,2.3-8.9,7.8-14.5,16.7-17.1C2194.1,1645,2189.4,1627.6,2178.2,1630.9Z" fill="#cff1ff"/>
        <path id="Path_2852" data-name="Path 2852" d="M1073.1,1733.6a9.438,9.438,0,0,0-6.4-2.6,9.632,9.632,0,0,0-6.4,2.6,9,9,0,0,0-2.6,6.4,9.632,9.632,0,0,0,2.6,6.4l3.5,3.5a9.438,9.438,0,0,0,6.4,2.6,9.632,9.632,0,0,0,6.4-2.6,9,9,0,0,0,2.6-6.4,9.632,9.632,0,0,0-2.6-6.4C1075.4,1735.9,1074.2,1734.8,1073.1,1733.6Z" fill="#cff1ff"/>
        <path id="Path_2853" data-name="Path 2853" d="M941,1657.6c-6.3-7.1-15.7-11.2-21.3-19a27.789,27.789,0,0,1-4-23.9c3.1-11.2-14.3-16-17.4-4.8a46.471,46.471,0,0,0,1,28.1c3.8,10.2,10.7,17.2,19.2,23.7,7.5,5.7,13.9,11.6,16.1,21.1,2.3,10.1-1.8,20.6-5.1,30-3.9,10.9,13.5,15.6,17.4,4.8,3.6-10,7.1-20.7,6.3-31.5A47.936,47.936,0,0,0,941,1657.6Z" fill="#cff1ff"/>
      </g>
    </g>
    <g id="outline">
      <g id="Group_358" data-name="Group 358">
        <g id="Group_357" data-name="Group 357">
          <path id="Path_2854" data-name="Path 2854" d="M1411.6,631.2c-4,35.9-8.1,71.8-12,107.7-3.2,29.2-5.8,59.4.9,88.3,6.1,26.6,21.1,50,44.6,64.4a101.756,101.756,0,0,0,72.1,13.1c32.8-6.6,57.6-31.5,78.1-56.3,3.7-4.4-2.7-10.8-6.4-6.4-17.7,21.4-38.2,43.2-65.4,51.7-22.7,7.1-48.1,4-69.1-7.2-23.3-12.5-38.3-34-44.7-59.4-6.8-27.2-4.6-55.8-1.7-83.4,4-37.5,8.4-75,12.5-112.5.8-5.8-8.2-5.7-8.9,0Z" fill="#003188"/>
        </g>
      </g>
      <g id="Group_360" data-name="Group 360">
        <g id="Group_359" data-name="Group 359">
          <path id="Path_2855" data-name="Path 2855" d="M1438.5,661.1c7.2-.3,14.4-.4,21.7,0,3.9.2,7.9.5,11.8.9,2.1.2,7.8-.1,9.5,1.4,2.2,1.9,1.4,7.3,1.4,10a63.763,63.763,0,0,1-.9,9.8,67.434,67.434,0,0,1-7,19.9c-5.6,10.6-14.6,20.6-18,32.2a16.956,16.956,0,0,0,1.9,13.7c2.5,4.3,6.7,7.7,8.6,12.3,2.2,5.3,10.9,3,8.7-2.4-2.2-5.2-5.9-8.8-8.9-13.4-4-6.2-.2-11.4,3.1-17,7.1-12.1,15.4-23.7,19.1-37.5a72.336,72.336,0,0,0,2.4-21.2c-.2-5.7-.9-11.8-6.7-14.4-6-2.8-14.5-2.5-21-2.9a218.674,218.674,0,0,0-25.6-.2c-5.9.1-5.9,9.1-.1,8.8Z" fill="#003188"/>
        </g>
      </g>
      <g id="Group_362" data-name="Group 362">
        <g id="Group_361" data-name="Group 361">
          <path id="Path_2856" data-name="Path 2856" d="M1448.9,685c-.6,5.6-1.3,11.3-1.9,16.9-.6,5.7,8.4,5.7,9,0,.6-5.6,1.3-11.3,1.9-16.9.7-5.8-8.3-5.7-9,0Z" fill="#003188"/>
        </g>
      </g>
      <g id="Group_364" data-name="Group 364">
        <g id="Group_363" data-name="Group 363">
          <path id="Path_2857" data-name="Path 2857" d="M1531.3,665.6a82.851,82.851,0,0,1,49.3,6.5c5.2,2.4,9.8-5.3,4.5-7.8a93.764,93.764,0,0,0-56.2-7.4c-5.7,1-3.3,9.7,2.4,8.7Z" fill="#003188"/>
        </g>
      </g>
      <g id="Group_366" data-name="Group 366">
        <g id="Group_365" data-name="Group 365">
          <path id="Path_2858" data-name="Path 2858" d="M1542.6,696.6c-.4,5.3-.9,10.5-1.3,15.8-.5,5.8,8.5,5.7,9,0,.4-5.3.9-10.5,1.3-15.8.5-5.8-8.5-5.8-9,0Z" fill="#003188"/>
        </g>
      </g>
      <g id="Group_368" data-name="Group 368">
        <g id="Group_367" data-name="Group 367">
          <path id="Path_2859" data-name="Path 2859" d="M1460.2,797.7c12.2-.9,24.4-1.7,36.6-2.6,3.2-.2,6.4-.5,9.6-.7,1.8-.1,7.5-1.5,9.1-.6,3.3,1.8-2.9,9.2-4.4,10.8-6.4,6.7-16.7,10.7-25.8,7.7s-17.4-11.4-20.8-20.3c-2.1-5.3-10.8-3-8.7,2.4,4.7,12.1,15.2,23,27.8,26.8,12.3,3.7,26.6-1.8,34.8-11.3,3.7-4.3,7.1-9.8,6.9-15.7-.3-6.5-5.2-9.5-11.2-9.3-17.9.5-36,2.6-53.9,3.8-5.7.5-5.7,9.5,0,9Z" fill="#003188"/>
        </g>
      </g>
      <g id="Group_370" data-name="Group 370">
        <g id="Group_369" data-name="Group 369">
          <path id="Path_2860" data-name="Path 2860" d="M1416,514.8c-24.4,18.6-36.7,51-29.5,81.1,3.5,14.4,12.1,29,26,35.4,17.1,7.7,36,1.5,53.3-2.1,39.7-8.1,81.4-10.8,121-1.1,14.9,3.7,32.3,9.7,36.5,26.4,4.1,16.4-3.6,33.8-6.7,49.7-1.7,8.4-3.7,18.3-1.4,26.7,1.8,6.6,7.2,14.6,15,12,6.3-2.1,10-9.7,13.1-15.1,5.6-9.9,10.9-20,16.8-29.7,3-4.9-4.7-9.5-7.8-4.5-4.8,7.8-9.2,15.9-13.6,23.9-1.7,3.1-3.4,6.2-5.2,9.2-1.3,2.2-3,5.8-5.3,7.1-5.4,3-4.7-15.1-4.4-18a187.765,187.765,0,0,1,4.4-22.1c3.5-14,7.6-29.5,3.1-43.8-4.3-13.6-15.9-21.6-28.7-26.5-16-6-33.8-8.6-50.8-9.8a284.643,284.643,0,0,0-54.6,1.4c-17.8,2.1-35.1,6.2-52.7,9.5-8.6,1.6-17.9,2.5-26.4-.6-7.1-2.6-12.7-8.1-16.6-14.4-17.3-28-6.5-67.6,18.8-86.9,4.8-3.5.3-11.3-4.3-7.8Z" fill="#003188"/>
        </g>
      </g>
      <g id="Group_372" data-name="Group 372">
        <g id="Group_371" data-name="Group 371">
          <path id="Path_2861" data-name="Path 2861" d="M1451.4,485.7c-4.3-3.2-10.3-1.9-13.9,1.8-4.1,4.3-3.7,10.6-.4,15.3,3.8,5.2,10.1,7.2,16.3,7.2,8.4,0,17.1-1.8,25.4-2.8,34.2-4.3,68.9-9.2,103.4-7.3,29.1,1.6,56.2,11.2,77.8,31.2a115.966,115.966,0,0,1,36.5,69.6c5,37.1-6.6,74.4-21,108.2-2.2,5.3,5.5,9.9,7.8,4.5,22.3-52.3,36.6-114.3,2.9-165.2a128.011,128.011,0,0,0-55.1-46.6c-28.3-12.3-60-12-90.2-10-18.5,1.3-36.9,3.5-55.3,5.8-9,1.1-17.9,2.4-26.9,3.3-4.2.4-9.4,1.1-12.9-1.8-1.2-1-2.9-2.9-2.2-4.6a2.052,2.052,0,0,1,3.3-.9c4.6,3.5,9.1-4.3,4.5-7.7Z" fill="#003188"/>
        </g>
      </g>
      <g id="Group_374" data-name="Group 374">
        <g id="Group_373" data-name="Group 373">
          <path id="Path_2862" data-name="Path 2862" d="M1425.7,550.6c-8,10.6-2.1,25.7,8.1,32.4,13.3,8.7,31.9,6.8,46.8,5.7,34.7-2.5,72.2-10.6,105,5.5,5.2,2.5,9.7-5.2,4.5-7.8-28.3-13.9-59.9-11.5-90.3-8.5-15.5,1.5-31.7,3.9-47.2,2-6.8-.8-14.3-3-18.5-8.8-3.5-4.9-4.3-11-.6-16,3.4-4.5-4.4-9-7.8-4.5Z" fill="#003188"/>
        </g>
      </g>
      <g id="Group_376" data-name="Group 376">
        <g id="Group_375" data-name="Group 375">
          <path id="Path_2863" data-name="Path 2863" d="M1605.3,599.5c1.9,1,3.9,1.9,5.8,2.9,2.1,1,5,.6,6.2-1.6a4.662,4.662,0,0,0-1.6-6.2c-1.9-1-3.9-1.9-5.8-2.9-2.1-1-5-.6-6.2,1.6-1.1,2.1-.6,5.1,1.6,6.2Z" fill="#003188"/>
        </g>
      </g>
      <g id="Group_378" data-name="Group 378">
        <g id="Group_377" data-name="Group 377">
          <path id="Path_2864" data-name="Path 2864" d="M1532.6,559.2a72.223,72.223,0,0,1,27,2.9c5.6,1.7,7.9-7,2.4-8.7a79.26,79.26,0,0,0-29.4-3.2c-5.7.4-5.8,9.4,0,9Z" fill="#003188"/>
        </g>
      </g>
      <g id="Group_380" data-name="Group 380">
        <g id="Group_379" data-name="Group 379">
          <path id="Path_2865" data-name="Path 2865" d="M1647.1,646.1c-.6,3.2-1.3,6.5-1.9,9.7a4.535,4.535,0,0,0,3.1,5.5c2.2.6,5.1-.7,5.5-3.1.6-3.2,1.3-6.5,1.9-9.7a4.535,4.535,0,0,0-3.1-5.5,4.421,4.421,0,0,0-5.5,3.1Z" fill="#003188"/>
        </g>
      </g>
      <g id="Group_382" data-name="Group 382">
        <g id="Group_381" data-name="Group 381">
          <path id="Path_2866" data-name="Path 2866" d="M1647.1,724.3c9.1-1.1,20.3-2.3,25.8,6.8s2.1,20.9-2.8,29.4a51.585,51.585,0,0,1-43,25.7c-5.8.2-5.8,9.2,0,9,22.6-.6,44.2-14.5,53.4-35.4,4.9-11.1,6.5-24.7-.9-35.1-7.6-10.7-20.5-10.9-32.4-9.5-5.8.8-5.9,9.8-.1,9.1Z" fill="#003188"/>
        </g>
      </g>
      <g id="Group_384" data-name="Group 384">
        <g id="Group_383" data-name="Group 383">
          <path id="Path_2867" data-name="Path 2867" d="M1652.3,738.7a65.155,65.155,0,0,0-15.8,11.3c-4.2,4,2.2,10.4,6.4,6.4a55.448,55.448,0,0,1,14-9.9c5.1-2.7.5-10.4-4.6-7.8Z" fill="#003188"/>
        </g>
      </g>
      <g id="Group_386" data-name="Group 386">
        <g id="Group_385" data-name="Group 385">
          <path id="Path_2868" data-name="Path 2868" d="M1633.8,802.2a844.825,844.825,0,0,0-15.7,178.1c.1,5.8,9.1,5.8,9,0a835.207,835.207,0,0,1,15.3-175.7c1.2-5.7-7.5-8.1-8.6-2.4Z" fill="#003188"/>
        </g>
      </g>
      <g id="Group_388" data-name="Group 388">
        <g id="Group_387" data-name="Group 387">
          <path id="Path_2869" data-name="Path 2869" d="M1425.8,874.5A1149.662,1149.662,0,0,1,1412.7,990c-.9,5.7,7.7,8.1,8.7,2.4a1168.6,1168.6,0,0,0,13.5-117.9c.2-5.8-8.8-5.8-9.1,0Z" fill="#003188"/>
        </g>
      </g>
      <g id="Group_390" data-name="Group 390">
        <path id="Path_2870" data-name="Path 2870" d="M1430.7,923c29.8,16.5,67.6,16.4,98.2,1.6s53.8-43.4,64-75.8a114.847,114.847,0,0,1-161.8,34.6c-1.3,12.5-2.5,25-3.8,37.5" fill="#003188"/>
        <g id="Group_389" data-name="Group 389">
          <path id="Path_2871" data-name="Path 2871" d="M1428.5,926.9c25.3,13.7,55.5,16.6,83.2,9,26.3-7.2,48.9-23.9,65.1-45.6a135.257,135.257,0,0,0,20.5-40.2c1.6-5-5.6-7.7-8.2-3.5a112.142,112.142,0,0,1-67.9,49c-30,7.3-62.2,1-87.8-16-3.1-2.1-6.5.8-6.8,3.9-1.3,12.5-2.5,25-3.8,37.5-.6,5.8,8.4,5.7,9,0,1.3-12.5,2.5-25,3.8-37.5-2.3,1.3-4.5,2.6-6.8,3.9,27.6,18.3,62.5,24.7,94.7,16.9a121.546,121.546,0,0,0,73.2-53.1c-2.7-1.2-5.5-2.3-8.2-3.5-9.5,29.9-30,56.2-57.8,71.1-30,16-67.7,16.7-97.7.5-5.1-3-9.6,4.8-4.5,7.6Z" fill="#003188"/>
        </g>
      </g>
      <g id="Group_392" data-name="Group 392">
        <g id="Group_391" data-name="Group 391">
          <path id="Path_2872" data-name="Path 2872" d="M1415.9,1002.1c-34-14.7-69.4-28-105.5-36.5-34.8-8.1-69.7-8.3-103.6,3.7-31.9,11.3-60.2,30.3-86.5,51.3-28.1,22.4-53.9,47.6-78.7,73.7q-44.4,46.65-86,95.8c-3.7,4.4,2.6,10.8,6.4,6.4q36.15-42.45,74.2-83.2c23.6-25.3,47.9-50.2,74.2-72.8,25.4-21.8,52.8-42.3,83.4-56.2,32.2-14.6,66.4-19,101.2-12.6,19.9,3.6,39.3,9.6,58.5,16.1q29.4,9.9,57.9,22.2c5.2,2.2,9.8-5.6,4.5-7.9Z" fill="#003188"/>
        </g>
      </g>
      <g id="Group_394" data-name="Group 394">
        <g id="Group_393" data-name="Group 393">
          <path id="Path_2873" data-name="Path 2873" d="M1423.6,1017.9c24.7,20.9,57.8,26.6,89.3,26.5a255.834,255.834,0,0,0,104.4-22.8c5.3-2.4.7-10.1-4.5-7.8a247.512,247.512,0,0,1-98.1,21.6c-29.5.3-61.5-4.2-84.8-23.9-4.3-3.7-10.7,2.6-6.3,6.4Z" fill="#003188"/>
        </g>
      </g>
      <g id="Group_396" data-name="Group 396">
        <g id="Group_395" data-name="Group 395">
          <path id="Path_2874" data-name="Path 2874" d="M1429.4,1048.5c20.4,18.5,46.7,29.2,74,31.7,30.3,2.7,60.6-5,87.5-18.6,5.2-2.6.6-10.4-4.5-7.8-47.8,24.3-109.1,26.1-150.7-11.6-4.2-3.9-10.6,2.4-6.3,6.3Z" fill="#003188"/>
        </g>
      </g>
      <g id="Group_398" data-name="Group 398">
        <g id="Group_397" data-name="Group 397">
          <path id="Path_2875" data-name="Path 2875" d="M2021.9,1735.8c1.9-71.2,3.7-142.4,2.6-213.7-1.1-68.2-4.7-136.7-14.8-204.2-9.5-62.9-25.6-125.4-54.2-182.5-26.1-52.2-62.9-100.3-111.6-133.2-52.9-35.6-121.7-51.1-183.5-31.3a168.407,168.407,0,0,0-22.9,9.2c-5.2,2.5-.7,10.3,4.5,7.8,59.2-28.5,130.7-18.2,185.8,14.7,49.3,29.5,86.8,75.3,113.8,125.4,29.6,55,46.7,115.8,57,177.2,10.9,65,14.8,131.2,16.5,197,1.7,69.2.3,138.5-1.5,207.7-.2,8.6-.4,17.1-.7,25.7-.2,6,8.8,6,9,.2Z" fill="#003188"/>
        </g>
      </g>
      <g id="Group_400" data-name="Group 400">
        <g id="Group_399" data-name="Group 399">
          <path id="Path_2876" data-name="Path 2876" d="M1808.9,1329.1c-6.7,112.9-8.4,226.2-5.1,339.2.9,31.7,2.3,63.5,4,95.2.3,5.8,9.3,5.8,9,0q-9.15-169.5-3.4-339.3c1.1-31.7,2.6-63.5,4.5-95.2.3-5.7-8.7-5.7-9,.1Z" fill="#003188"/>
        </g>
      </g>
      <g id="Group_402" data-name="Group 402">
        <g id="Group_401" data-name="Group 401">
          <path id="Path_2877" data-name="Path 2877" d="M1833,1488.9a512.524,512.524,0,0,1,206.4-68.2c5.7-.6,5.8-9.6,0-9a520.964,520.964,0,0,0-210.9,69.4c-5,3-.5,10.7,4.5,7.8Z" fill="#003188"/>
        </g>
      </g>
      <g id="Group_404" data-name="Group 404">
        <g id="Group_403" data-name="Group 403">
          <path id="Path_2878" data-name="Path 2878" d="M1933.6,1655.8a148.146,148.146,0,0,0-18.4,40c-1.6,5.6,7.1,7.9,8.7,2.4a140.331,140.331,0,0,1,17.5-37.9c3.1-4.8-4.7-9.3-7.8-4.5Z" fill="#003188"/>
        </g>
      </g>
      <g id="Group_406" data-name="Group 406">
        <g id="Group_405" data-name="Group 405">
          <path id="Path_2879" data-name="Path 2879" d="M1763.5,1256.5a141.187,141.187,0,0,1,35,52.8c2,5.4,10.7,3.1,8.7-2.4a149.934,149.934,0,0,0-37.3-56.8c-4.2-4-10.6,2.4-6.4,6.4Z" fill="#003188"/>
        </g>
      </g>
      <g id="Group_408" data-name="Group 408">
        <g id="Group_407" data-name="Group 407">
          <path id="Path_2880" data-name="Path 2880" d="M1759.2,1295.6a86.23,86.23,0,0,1,21.3,24.5c2.9,5,10.7.5,7.8-4.5a93.78,93.78,0,0,0-22.7-26.3c-4.5-3.6-10.9,2.7-6.4,6.3Z" fill="#003188"/>
        </g>
      </g>
      <g id="Group_410" data-name="Group 410">
        <g id="Group_409" data-name="Group 409">
          <path id="Path_2881" data-name="Path 2881" d="M1696,1513.3a342.194,342.194,0,0,0-103.2,67.2c-4.2,4,2.2,10.4,6.4,6.4a328.737,328.737,0,0,1,99.2-64.9c5.3-2.3,3-11-2.4-8.7Z" fill="#003188"/>
        </g>
      </g>
      <g id="Group_412" data-name="Group 412">
        <g id="Group_411" data-name="Group 411">
          <path id="Path_2882" data-name="Path 2882" d="M1684.7,1546a292.815,292.815,0,0,0-65.6,57.5c-3.7,4.4,2.6,10.8,6.4,6.4a284.5,284.5,0,0,1,63.8-56.1c4.8-3.2.3-10.9-4.6-7.8Z" fill="#003188"/>
        </g>
      </g>
      <g id="Group_414" data-name="Group 414">
        <g id="Group_413" data-name="Group 413">
          <path id="Path_2883" data-name="Path 2883" d="M1216,1483.2a1392.283,1392.283,0,0,0,170.9,72.1c5.5,1.9,7.8-6.8,2.4-8.7a1372.172,1372.172,0,0,1-168.7-71.2c-5.3-2.6-9.8,5.2-4.6,7.8Z" fill="#003188"/>
        </g>
      </g>
      <g id="Group_416" data-name="Group 416">
        <g id="Group_415" data-name="Group 415">
          <path id="Path_2884" data-name="Path 2884" d="M707.2,859c-8.6-24.1-17.5-48.2-25.7-72.4-7.3-21.7-13.1-46.4-1.5-67.8,2.8-5.1-5-9.6-7.8-4.5-11.8,21.8-8.3,46.8-1.1,69.5,8.3,26.1,18.2,51.8,27.4,77.7,2,5.3,10.7,3,8.7-2.5Z" fill="#003188"/>
        </g>
      </g>
      <g id="Group_418" data-name="Group 418">
        <g id="Group_417" data-name="Group 417">
          <path id="Path_2885" data-name="Path 2885" d="M731.9,851q-13.5-34.8-24.8-70.4c-3.7-11.7-7.2-23.5-10.4-35.3-2.7-9.9-5.3-20-5.8-30.3-.5-9.9.8-20.1,6.5-28.5,2.4-3.5,6.6-7.8,11.1-5.4,3.7,2,5.8,7,7.1,10.8,3.9,11.2,6.4,23.1,9.5,34.6,3.3,12.2,6.6,24.4,10,36.6l22.5,82.8c1.5,5.6,10.2,3.2,8.7-2.4l-22.5-82.8c-3.8-13.8-7.5-27.6-11.3-41.4-3.2-11.8-5.3-24.8-10.7-35.8-3.9-7.8-11.4-14.2-20.6-11.3-9.8,3-15.5,14.9-17.8,24.1-5.5,22.6,3,46.7,9.3,68.3,8.9,30.1,19,59.7,30.4,89,2.2,5.2,10.9,2.8,8.8-2.6Z" fill="#003188"/>
        </g>
      </g>
      <g id="Group_420" data-name="Group 420">
        <g id="Group_419" data-name="Group 419">
          <path id="Path_2886" data-name="Path 2886" d="M715.4,1021.1c-24.4-36.8-29.1-82.4-49.1-121.3-9.6-18.7-21.3-36.4-30.3-55.5a133.042,133.042,0,0,1-10.3-30c-.6-3.1-3.5-12.7.5-14.5,4.3-1.9,10.1,4.8,12.5,7.4,8.7,9.8,14.1,22.4,20,33.9,6.6,12.9,13.1,25.7,19.7,38.6,2.6,5.2,10.4.6,7.8-4.5-6.6-12.9-13.1-25.7-19.7-38.6-5.8-11.3-11.2-23.1-19.2-33.2-5.5-6.9-15.3-16.2-25-11.7-10.4,4.8-6.5,19.5-4.5,28.1,5.4,22.9,17.7,43.4,29.2,63.6a344.479,344.479,0,0,1,16.5,31.2c5.2,11.5,9.2,23.5,13,35.4,8.3,26,15.9,52.6,31.1,75.6,3.2,4.9,11,.4,7.8-4.5Z" fill="#003188"/>
        </g>
      </g>
      <g id="Group_422" data-name="Group 422">
        <g id="Group_421" data-name="Group 421">
          <path id="Path_2887" data-name="Path 2887" d="M700.6,871.3a265.449,265.449,0,0,1,72.5-24.1c5.7-1,3.3-9.7-2.4-8.7a270.607,270.607,0,0,0-74.7,25c-5.1,2.7-.6,10.4,4.6,7.8Z" fill="#003188"/>
        </g>
      </g>
      <g id="Group_424" data-name="Group 424">
        <g id="Group_423" data-name="Group 423">
          <path id="Path_2888" data-name="Path 2888" d="M792.1,829.6c-2.2-23.1-4.3-46.3-6.5-69.4-1.1-11.7-2.3-23.4-3.3-35-.8-9.5-1.5-19.3.9-28.6,1-4,2.7-9.8,6.2-12.5,5.2-4.1,9.6,3.6,11.1,7.6,3.6,9.7,5.7,20.2,7.8,30.4,4.8,22.6,9.3,45.2,14,67.8,5.4,26.1,10.7,52.2,16.1,78.3,1.2,5.7,9.8,3.3,8.7-2.4-10.5-51.1-20-102.5-31.7-153.4-2.3-10.2-4.1-23-10.6-31.5-5.5-7.2-15.7-9.5-22.4-2.6-7,7.2-9.2,18.8-9.7,28.5-.6,11.5,1,23.2,2.1,34.6,2.8,29.4,5.5,58.8,8.3,88.2.5,5.7,9.5,5.8,9,0Z" fill="#003188"/>
        </g>
      </g>
      <g id="Group_426" data-name="Group 426">
        <g id="Group_425" data-name="Group 425">
          <path id="Path_2889" data-name="Path 2889" d="M807.8,937.3a212.51,212.51,0,0,1,73.9-96.1c4.3-3.1,8.7-6.5,13.6-8.6,4.2-1.8,11.7-3,13.8,2.6,1.8,4.8-2.1,12.3-4,16.7-2.3,5.5-5.2,10.8-7.9,16.2a337.941,337.941,0,0,0-24.6,63.8c-7.2,25.9-12,52.4-16.7,78.8-1,5.7,7.6,8.1,8.7,2.4,4.7-26.1,9.5-52.3,16.5-77.9A376.56,376.56,0,0,1,893.4,898c5-12.6,11.5-24.4,17.3-36.6,4.1-8.7,11.4-22,6-31.4-5.6-9.7-18.2-8.9-26.9-4.6-10,5-19.3,12.8-27.8,20a221.531,221.531,0,0,0-62.9,89.5c-2.1,5.4,6.6,7.7,8.7,2.4Z" fill="#003188"/>
        </g>
      </g>
      <g id="Group_428" data-name="Group 428">
        <g id="Group_427" data-name="Group 427">
          <path id="Path_2890" data-name="Path 2890" d="M711.8,897.4A116.983,116.983,0,0,1,742,940.7c2.1,5.3,10.8,3,8.7-2.4A126.886,126.886,0,0,0,718.2,891c-4.3-3.8-10.7,2.5-6.4,6.4Z" fill="#003188"/>
        </g>
      </g>
      <g id="Group_430" data-name="Group 430">
        <g id="Group_429" data-name="Group 429">
          <path id="Path_2891" data-name="Path 2891" d="M722.7,1046q33.3,106.5,66.7,212.9,16.65,53.25,33.3,106.4c8.6,27.6,16.9,55.5,29.7,81.6,13.1,26.6,31.8,51.1,58.6,64.9,5.1,2.6,9.7-5.1,4.5-7.8-49.8-25.5-66.7-84.9-82.2-134.4q-32.55-104.1-65.2-208.1-18.45-58.95-36.9-117.8c-1.6-5.6-10.3-3.2-8.5,2.3Z" fill="#003188"/>
        </g>
      </g>
      <g id="Group_432" data-name="Group 432">
        <g id="Group_431" data-name="Group 431">
          <path id="Path_2892" data-name="Path 2892" d="M961.3,1525.4c17.8,3.7,34.8-3.1,50.4-11.1a290.78,290.78,0,0,0,41.1-25.6,308.347,308.347,0,0,0,67.1-68.3,304.876,304.876,0,0,0,27.6-47.2c2.4-5.2-5.3-9.8-7.8-4.5a297.142,297.142,0,0,1-121.5,131.9c-16.1,9.1-35.3,20.2-54.5,16.2-5.7-1.3-8.1,7.4-2.4,8.6Z" fill="#003188"/>
        </g>
      </g>
      <g id="Group_434" data-name="Group 434">
        <g id="Group_433" data-name="Group 433">
          <path id="Path_2893" data-name="Path 2893" d="M858.4,1011.3q49.05,115.95,106.7,227.9c10.9,21.1,21.9,42,33.2,62.9,2.8,5.1,10.5.6,7.8-4.5q-60-110.7-111.6-225.6c-9.7-21.6-19.2-43.4-28.4-65.2-2.2-5.3-10-.7-7.7,4.5Z" fill="#003188"/>
        </g>
      </g>
      <g id="Group_436" data-name="Group 436">
        <g id="Group_435" data-name="Group 435">
          <path id="Path_2894" data-name="Path 2894" d="M1149.7,1180.9c-11.2,71.8-7.1,144.5,1.8,216.3,9,72.5,22.6,144.4,30.1,217.1,4.2,40.9,6.3,82.1,4.5,123.2-.3,5.8,8.7,5.8,9,0,3.1-72.4-5.9-144.5-16.5-215.9-10.7-71.9-23.1-143.7-26.1-216.4-1.7-40.7-.3-81.6,5.9-121.8.8-5.8-7.8-8.3-8.7-2.5Z" fill="#003188"/>
        </g>
      </g>
      <g id="Group_438" data-name="Group 438">
        <g id="Group_437" data-name="Group 437">
          <path id="Path_2895" data-name="Path 2895" d="M983.1,1141.9a1156.549,1156.549,0,0,1,112.5,195.5c8.9,19.8,17.3,39.8,25,60,2.1,5.4,10.8,3,8.7-2.4a1166.094,1166.094,0,0,0-102-203.5c-11.6-18.4-23.8-36.5-36.4-54.2-3.4-4.7-11.2-.2-7.8,4.6Z" fill="#003188"/>
        </g>
      </g>
      <g id="Group_440" data-name="Group 440">
        <g id="Group_439" data-name="Group 439">
          <path id="Path_2896" data-name="Path 2896" d="M1038.8,1184.5a302,302,0,0,1,65.9,122.2c1.5,5.6,10.2,3.2,8.7-2.4a311.628,311.628,0,0,0-68.2-126.1c-3.9-4.4-10.3,2-6.4,6.3Z" fill="#003188"/>
        </g>
      </g>
      <g id="Group_442" data-name="Group 442">
        <g id="Group_441" data-name="Group 441">
          <path id="Path_2897" data-name="Path 2897" d="M1162.4,1128.8a7.288,7.288,0,0,0-4.6,3.8,8.25,8.25,0,0,0-.9,3.5,8.645,8.645,0,0,0,.9,3.5,4.407,4.407,0,0,0,2.7,2.1,4.338,4.338,0,0,0,3.5-.5,4.407,4.407,0,0,0,2.1-2.7,4.773,4.773,0,0,0-.5-3.5c0,.1.4,1.1.2.5.3,1.2.1.9.1.5.1-.5-.1,1.1-.1.6.1-.5.4-.3-.2.4l.2-.4s-.7.9-.3.4c.5-.5-.8.5-.3.3.4-.2-1.2.4-.4.2a4.421,4.421,0,0,0,3.1-5.5,4.645,4.645,0,0,0-5.5-3.2Z" fill="#003188"/>
        </g>
      </g>
      <g id="Group_444" data-name="Group 444">
        <g id="Group_443" data-name="Group 443">
          <path id="Path_2898" data-name="Path 2898" d="M1120.5,1064.9l16.8-14.7c4.4-3.8-2-10.2-6.4-6.4l-16.8,14.7c-4.3,3.9,2.1,10.2,6.4,6.4Z" fill="#003188"/>
        </g>
      </g>
      <g id="Group_446" data-name="Group 446">
        <g id="Group_445" data-name="Group 445">
          <path id="Path_2899" data-name="Path 2899" d="M1222.3,1682.1a104.642,104.642,0,0,0,29.6,28.2c4.9,3.1,9.4-4.7,4.5-7.8a93.9,93.9,0,0,1-26.4-25c-3.3-4.6-11.1-.1-7.7,4.6Z" fill="#003188"/>
        </g>
      </g>
      <g id="Group_448" data-name="Group 448">
        <g id="Group_447" data-name="Group 447">
          <path id="Path_2900" data-name="Path 2900" d="M1227.7,1716.3l10.5,10.5c4.1,4.1,10.5-2.3,6.4-6.4l-10.5-10.5c-4.2-4-10.6,2.3-6.4,6.4Z" fill="#003188"/>
        </g>
      </g>
      <g id="Group_450" data-name="Group 450">
        <g id="Group_449" data-name="Group 449">
          <path id="Path_2901" data-name="Path 2901" d="M795.6,1458.9c-3,5,0,12.6,6,13.6,2.3.4,5-.6,5.5-3.1.5-2.1-.7-5.2-3.1-5.5-.4-.1-1-.4-.2.1a2.181,2.181,0,0,1-.5-.3c.4.4.5.4.3.2s-.2-.1.2.3c-.1-.2-.3-.5-.4-.7s-.1-.2,0,.1.1.3,0-.1a.368.368,0,0,0-.1-.3c.1.6.1.7.1.4-.2-.5,0-.5,0,.1.1-.8-.4.7.1-.1a4.6,4.6,0,0,0-7.9-4.7Z" fill="#003188"/>
        </g>
      </g>
      <g id="Group_452" data-name="Group 452">
        <g id="Group_451" data-name="Group 451">
          <path id="Path_2902" data-name="Path 2902" d="M2021.8,1241.8a6.1,6.1,0,0,0,.1,3,7.219,7.219,0,0,0,1.4,2.4,5.936,5.936,0,0,0,4.3,1.6,6.132,6.132,0,0,0,4.3-1.7,5.631,5.631,0,0,0,1.5-5.4,4.407,4.407,0,0,0-2.1-2.7,4.773,4.773,0,0,0-3.5-.5,4.546,4.546,0,0,0-3.1,5.5v.1c-.1-.4-.1-.8-.2-1.2v.3c.1-.4.1-.8.2-1.2,0,.1,0,.2-.1.2.2-.4.3-.7.5-1.1,0,.1-.1.1-.1.2.2-.3.5-.6.7-.9-.1.1-.1.2-.2.2.3-.2.6-.5.9-.7-.1.1-.2.1-.3.2.4-.2.7-.3,1.1-.5a.9.9,0,0,1-.5.1c.4-.1.8-.1,1.2-.2h-.6c.4.1.8.1,1.2.2-.1,0-.3-.1-.4-.1.4.2.7.3,1.1.5-.1,0-.2-.1-.3-.2.3.2.6.5.9.7-.1-.1-.2-.1-.2-.2.2.3.5.6.7.9l-.1-.1c.2.4.3.7.5,1.1,0-.1-.1-.1-.1-.2.1.4.1.8.2,1.2v-.3c-.1.4-.1.8-.2,1.2v-.1a3.674,3.674,0,0,0,.1-1.8,3.371,3.371,0,0,0-.5-1.7,4.787,4.787,0,0,0-2.7-2.1,4.338,4.338,0,0,0-3.5.5,4.268,4.268,0,0,0-2.2,2.8Z" fill="#003188"/>
        </g>
      </g>
      <g id="Group_454" data-name="Group 454">
        <g id="Group_453" data-name="Group 453">
          <path id="Path_2903" data-name="Path 2903" d="M1325.8,901.6c0-.2-.1-.4-.1-.6l-2.1,5.1a.1.1,0,0,0,.1-.1c-1.8-.2-3.6-.5-5.5-.7a8.791,8.791,0,0,1-.6-1l2.1-5.1a.1.1,0,0,0-.1.1c1.8.2,3.6.5,5.5.7l-.4-.4c-4.1-4.1-10.5,2.3-6.4,6.4l.4.4a4.67,4.67,0,0,0,5.5.7.1.1,0,0,0,.1-.1c1.6-.9,2.8-3.3,2.1-5.1a14.588,14.588,0,0,0-1.7-3c-1.2-1.6-3.9-1.6-5.5-.7a.1.1,0,0,0-.1.1,4.711,4.711,0,0,0-2.1,5.1c0,.2.1.4.1.6,1.4,5.6,10.1,3.2,8.7-2.4Z" fill="#003188"/>
        </g>
      </g>
      <g id="Group_456" data-name="Group 456">
        <g id="Group_455" data-name="Group 455">
          <path id="Path_2904" data-name="Path 2904" d="M1707.7,481.8l-3.6,3.6a4.557,4.557,0,0,0,0,6.4,4.653,4.653,0,0,0,6.4,0l3.6-3.6a4.525,4.525,0,1,0-6.4-6.4Z" fill="#003188"/>
        </g>
      </g>
    </g>
    <g id="color_outline">
      <g id="Group_458" data-name="Group 458">
        <g id="Group_457" data-name="Group 457">
          <path id="Path_2905" data-name="Path 2905" d="M887.2,1610.6c-1.2,10.5-1.1,21.7,2.5,31.8,3.7,10.2,10.6,17,19.7,22.7,9.7,6,17.9,11.8,19.8,23.9,1.7,10.9-1.6,22.2-5.6,32.1-2.2,5.4,6.5,7.7,8.7,2.4,7.8-19.1,11-44.4-7.1-58.8-8.8-7-19.7-10.7-25.1-21.2-5.2-10-5-22-3.8-32.9.5-5.7-8.5-5.7-9.1,0Z" fill="#24bdff"/>
        </g>
      </g>
      <g id="Group_460" data-name="Group 460">
        <g id="Group_459" data-name="Group 459">
          <path id="Path_2906" data-name="Path 2906" d="M917.9,1613.4c-3.8,16.7,5.7,31.2,16,43.4,9.9,11.8,25.2,28.3,16.1,44.8-2.8,5.1,5,9.6,7.8,4.5,8.3-15.2,1.5-31.9-8.2-44.5-10.1-13-27.1-27.4-23-45.8,1.2-5.6-7.5-8-8.7-2.4Z" fill="#24bdff"/>
        </g>
      </g>
      <g id="Group_462" data-name="Group 462">
        <g id="Group_461" data-name="Group 461">
          <path id="Path_2907" data-name="Path 2907" d="M2167.6,1629.1a51.058,51.058,0,0,0-25.7,47.9c1.1,16.6,12.3,46.1-8.5,55.5-5.3,2.4-.7,10.1,4.5,7.8,18.5-8.4,17.9-31.5,15.1-48.3-1.8-10.9-3.7-21.7,0-32.4a42.114,42.114,0,0,1,19.1-22.6c5.1-3,.5-10.8-4.5-7.9Z" fill="#24bdff"/>
        </g>
      </g>
      <g id="Group_464" data-name="Group 464">
        <g id="Group_463" data-name="Group 463">
          <path id="Path_2908" data-name="Path 2908" d="M2177.4,1651.5c-11.8,10.2-12.8,26.6-11.6,41.1s4.5,35-10.4,44.1c-4.9,3-.4,10.8,4.5,7.8,13.2-8,16.6-23.8,15.9-38.2-.7-15.9-6.1-36.3,7.8-48.3,4.6-3.9-1.8-10.2-6.2-6.5Z" fill="#24bdff"/>
        </g>
      </g>
      <g id="Group_466" data-name="Group 466">
        <g id="Group_465" data-name="Group 465">
          <path id="Path_2909" data-name="Path 2909" d="M2314.6,1414.8a119.063,119.063,0,0,0-20.6,57.8c-.5,5.8,8.5,5.7,9,0a111.557,111.557,0,0,1,19.4-53.3c3.2-4.7-4.6-9.3-7.8-4.5Z" fill="#24bdff"/>
        </g>
      </g>
      <g id="Group_468" data-name="Group 468">
        <g id="Group_467" data-name="Group 467">
          <path id="Path_2910" data-name="Path 2910" d="M2331.3,1421.6a145.811,145.811,0,0,0-21.5,49.7c-1.3,5.6,7.4,8.1,8.7,2.4a136.474,136.474,0,0,1,20.6-47.6c3.2-4.7-4.6-9.2-7.8-4.5Z" fill="#24bdff"/>
        </g>
      </g>
      <g id="Group_470" data-name="Group 470">
        <g id="Group_469" data-name="Group 469">
          <path id="Path_2911" data-name="Path 2911" d="M2206.8,1114.6c-24.1,16.5-29.7,50.1-10.9,72.9,3.6,4.4,11.9,10.7,6.1,16.4-4.6,4.6-10.6,6.8-14.5,12.3-7.6,10.9-4.6,23.4,6.1,30.6,4.8,3.3,11.8,5.5,14.8,10.7,5.2,9.1-5.3,18.1-11.8,22.8-4.6,3.4-.2,11.2,4.5,7.8,10.5-7.7,22.9-20.6,15.3-34.6-2.6-4.8-7.3-7.9-11.9-10.6-4.8-2.8-11.5-5.7-12.4-11.8-2.2-14.7,18.8-16.3,20.9-29.4,1-6.4-2.8-11.6-6.8-16.1-5.2-5.9-9.4-11.7-11.4-19.4a40.626,40.626,0,0,1,16.5-43.8c4.8-3.3.3-11.1-4.5-7.8Z" fill="#24bdff"/>
        </g>
      </g>
      <g id="Group_472" data-name="Group 472">
        <g id="Group_471" data-name="Group 471">
          <path id="Path_2912" data-name="Path 2912" d="M2227,1131.2c-8.3,11.9-14.4,26.9-9.6,41.4a29.375,29.375,0,0,0,11,15.3c4.6,3.2,15,5,12.8,12.6-3.3,11.2-27.4,18.6-16.3,33.1,3.5,4.6,10.7,6.6,12.6,12.4,2.2,6.6-1.8,14.4-4.8,20.1-2.7,5.1,5.1,9.7,7.8,4.5,5.7-10.9,11-25.9.1-35.5-2.2-2-4.8-3.4-7-5.3-3.5-3.1-2-5.7,1.1-8.9,5-5.1,11.1-8.6,14.2-15.4,2.6-5.7,2.4-12.3-2.1-17-4.6-4.8-11.6-5.7-16.1-10.5-11.7-12.4-4.1-30.5,4.2-42.3,3.1-4.7-4.7-9.2-7.9-4.5Z" fill="#24bdff"/>
        </g>
      </g>
      <g id="Group_474" data-name="Group 474">
        <g id="Group_473" data-name="Group 473">
          <path id="Path_2913" data-name="Path 2913" d="M1983.3,971.5c23.4-8.5,50.8,2.9,61.4,25.4,2.5,5.2,10.2.7,7.8-4.5-12.2-25.9-44.7-39.2-71.5-29.5-5.5,1.9-3.2,10.6,2.3,8.6Z" fill="#24bdff"/>
        </g>
      </g>
      <g id="Group_476" data-name="Group 476">
        <g id="Group_475" data-name="Group 475">
          <path id="Path_2914" data-name="Path 2914" d="M1986,963.6c-3.4-8.5,4.9-14.3,12.3-15.7s15.7-.6,23.1.6c14.8,2.4,28.7,8.4,38.2,20.4,3.6,4.5,9.9-1.9,6.4-6.4-12.2-15.5-31.8-22.1-50.8-23.8-9.6-.8-20.7-1.1-29.1,4.3-7.5,4.7-12.1,14.4-8.7,23,2.1,5.3,10.8,2.9,8.6-2.4Z" fill="#24bdff"/>
        </g>
      </g>
      <g id="Group_478" data-name="Group 478">
        <g id="Group_477" data-name="Group 477">
          <path id="Path_2915" data-name="Path 2915" d="M2056.9,646.5c-3.7,5.3-2.8,12.1.8,17.3,4.5,6.5,12.3,8.6,19.3,10.9,14.2,4.7,27,17.2,25.4,33.1-.6,5.8,8.4,5.7,9,0,1.3-13.6-6.2-26-16.8-34-5.6-4.3-11.8-6.7-18.4-8.8-5.1-1.7-16.9-6.6-11.6-14,3.4-4.7-4.4-9.2-7.7-4.5Z" fill="#24bdff"/>
        </g>
      </g>
      <g id="Group_480" data-name="Group 480">
        <g id="Group_479" data-name="Group 479">
          <path id="Path_2916" data-name="Path 2916" d="M2087.2,649.7c-1.4,13.1,11.9,19.7,22.3,23.1,6.2,2,12.5,4.3,15.7,10.5,3,6,3.1,13.1,3,19.7-.1,5.8,8.9,5.8,9,0,.1-12.1-1.4-25.4-12-33-8-5.7-30.5-6.9-29-20.3.6-5.7-8.4-5.7-9,0Z" fill="#24bdff"/>
        </g>
      </g>
      <g id="Group_482" data-name="Group 482">
        <g id="Group_481" data-name="Group 481">
          <path id="Path_2917" data-name="Path 2917" d="M1707.5,846.4a113.273,113.273,0,0,1,18.6,29.7c2.2,5.3,10.9,3,8.7-2.4a123.508,123.508,0,0,0-20.9-33.7c-3.9-4.3-10.2,2-6.4,6.4Z" fill="#24bdff"/>
        </g>
      </g>
      <g id="Group_484" data-name="Group 484">
        <g id="Group_483" data-name="Group 483">
          <path id="Path_2918" data-name="Path 2918" d="M1730.1,843c4.3,8.6,8.6,17.3,13,25.9,2.6,5.2,10.4.6,7.8-4.5-4.3-8.6-8.6-17.3-13-25.9-2.6-5.2-10.3-.7-7.8,4.5Z" fill="#24bdff"/>
        </g>
      </g>
      <g id="Group_486" data-name="Group 486">
        <g id="Group_485" data-name="Group 485">
          <path id="Path_2919" data-name="Path 2919" d="M1850,524.6c-1,18.2-24.2,25.6-35.4,36.6-6,6-9.9,13.3-10.6,21.8-.9,10.4,2.9,20.6,6.7,30.1,2.1,5.3,10.8,3,8.7-2.4-3.7-9.3-8-19.8-6-30,1.8-9,9-15.1,16.2-20.1,13-9.1,28.5-18.4,29.4-36.1.3-5.6-8.7-5.6-9,.1Z" fill="#24bdff"/>
        </g>
      </g>
      <g id="Group_488" data-name="Group 488">
        <g id="Group_487" data-name="Group 487">
          <path id="Path_2920" data-name="Path 2920" d="M1836.3,604.1c-4.4-5.3-2.8-13.2.5-18.6,3.8-6.2,10.2-10.5,16-14.7,10.9-7.9,21.8-17.3,22.4-31.8.2-5.8-8.8-5.8-9,0-.7,16.8-20.9,24.3-31.3,34.6-9.7,9.7-14.7,25.3-5.1,36.8,3.9,4.5,10.2-1.9,6.5-6.3Z" fill="#24bdff"/>
        </g>
      </g>
      <g id="Group_490" data-name="Group 490">
        <g id="Group_489" data-name="Group 489">
          <path id="Path_2921" data-name="Path 2921" d="M1748.5,389.9c-5.4,4.5-6.5,12.9-3.2,19,3.5,6.5,11.3,8.7,18,6,6.8-2.8,11.2-10,8.9-17.4a15.774,15.774,0,0,0-18.3-10.5c-5.7,1.2-3.3,9.9,2.4,8.7,7.3-1.6,10.5,9.1,2.7,11.2-6.6,1.8-8.5-7-4.2-10.7,4.5-3.7-1.9-10-6.3-6.3Z" fill="#24bdff"/>
        </g>
      </g>
      <g id="Group_492" data-name="Group 492">
        <g id="Group_491" data-name="Group 491">
          <path id="Path_2922" data-name="Path 2922" d="M1431.6,374.7c-12.2,5-10,24,4,24.2,6.1.1,11.9-3.8,13.3-9.9a14.916,14.916,0,0,0-7.1-16.1c-5-2.9-9.6,4.9-4.5,7.8,3.8,2.2,4.3,8.7-1,9.2-1.9.2-3.6-.6-3.9-2.6-.2-1.2.3-3.4,1.6-3.9,2.3-.9,3.8-3,3.1-5.5-.6-2.1-3.3-4.1-5.5-3.2Z" fill="#24bdff"/>
        </g>
      </g>
      <g id="Group_494" data-name="Group 494">
        <g id="Group_493" data-name="Group 493">
          <path id="Path_2923" data-name="Path 2923" d="M1247.2,545.2a53.241,53.241,0,0,1,24.8,39.4c.6,5.7,9.6,5.8,9,0a62.842,62.842,0,0,0-29.3-47.1c-4.9-3.1-9.4,4.7-4.5,7.7Z" fill="#24bdff"/>
        </g>
      </g>
      <g id="Group_496" data-name="Group 496">
        <g id="Group_495" data-name="Group 495">
          <path id="Path_2924" data-name="Path 2924" d="M1251.5,507.1c-5.5,13.3,4.9,25.2,14.6,32.9,5.7,4.5,11.3,8.8,15.3,14.9a48.289,48.289,0,0,1,7.4,19.6c.9,5.7,9.5,3.3,8.7-2.4a54.38,54.38,0,0,0-17.4-32.3c-8.4-7.5-25.7-16.5-20-30.3,2.3-5.3-6.4-7.7-8.6-2.4Z" fill="#24bdff"/>
        </g>
      </g>
      <g id="Group_498" data-name="Group 498">
        <g id="Group_497" data-name="Group 497">
          <path id="Path_2925" data-name="Path 2925" d="M1112.7,690.6c-11.1,9.1-9.2,25-3.5,36.4,6.2,12.5,22.1,28.8,11.6,43.2-3.4,4.7,4.4,9.2,7.8,4.5,8.9-12.2,3.2-27.6-3.9-39.2-6.4-10.5-18.7-28-5.7-38.7,4.5-3.5-1.9-9.8-6.3-6.2Z" fill="#24bdff"/>
        </g>
      </g>
      <g id="Group_500" data-name="Group 500">
        <g id="Group_499" data-name="Group 499">
          <path id="Path_2926" data-name="Path 2926" d="M1133.2,693.3c-8.9,11.1-7.1,25.2-1.9,37.5,5.4,12.9,16.4,28.9,7.2,42.6-3.3,4.8,4.5,9.3,7.8,4.5,7.9-11.7,4.5-26-.8-37.9-5.1-11.6-15.6-28.3-5.9-40.4,3.6-4.4-2.7-10.8-6.4-6.3Z" fill="#24bdff"/>
        </g>
      </g>
      <g id="Group_502" data-name="Group 502">
        <g id="Group_501" data-name="Group 501">
          <path id="Path_2927" data-name="Path 2927" d="M948.9,613.5c-7.9,2.8-13.6,10.3-13.1,18.9.5,8.7,8,15.6,16.5,16.6,9.2,1,17.7-5.8,21.1-14.1,2.9-7.1,1.8-16.1-6.2-18.9-5.5-1.9-7.8,6.8-2.4,8.7,2.7.9.5,6.7-.4,8.2-2.5,4.3-7,8.1-12.2,7-9.2-2-9.8-14.6-1-17.7,5.5-1.9,3.2-10.6-2.3-8.7Z" fill="#24bdff"/>
        </g>
      </g>
      <g id="Group_504" data-name="Group 504">
        <g id="Group_503" data-name="Group 503">
          <path id="Path_2928" data-name="Path 2928" d="M1039.6,904.6c-5,10.7,4.5,24.6,16.7,20.1a14.9,14.9,0,0,0,9.8-13.6c0-6.6-6-12.5-12.6-10.7-5.6,1.5-3.2,10.2,2.4,8.7,1.9-.5,1,3.7.5,4.4a5.883,5.883,0,0,1-5.2,3c-3.1-.4-5.2-4.7-3.9-7.4,2.5-5.2-5.3-9.7-7.7-4.5Z" fill="#24bdff"/>
        </g>
      </g>
      <g id="Group_506" data-name="Group 506">
        <g id="Group_505" data-name="Group 505">
          <path id="Path_2929" data-name="Path 2929" d="M1277.3,733.4c-2.4,4.5-.2,9.7,4.3,11.9,4.9,2.4,11.1.1,11.9-5.7.6-4.6-3-9.2-7.5-10.1-3-.6-7.1.5-8,3.8a7.8,7.8,0,0,0,3.6,8.6,4.288,4.288,0,0,0,4.5,0,8.438,8.438,0,0,0,3.9-4.6,5.466,5.466,0,0,0-2.4-6.3c-3.9-2.2-9.8.8-8.2,5.7.7,2.2,3.2,3.9,5.5,3.1a4.5,4.5,0,0,0,3.1-5.5c0,.3.1.5.1.8-.2.8-.4,1.5-.6,2.3-1.8,3.9-7.9.5-6-3q.6-.9,0-.3h4.5c.4.3.5.9.3.3.1.5.3.7.2,1.3l-2.1,2.7c.2-.1.3-.2.5-.3-.7.2-.7.3-.3.2-.8.1-.9.1-.4.1-.7-.1-.9-.1-.4,0,.7.2-.9-.5.2.1.7.3-.7-.6.2.2.6.5-.5-.8.2.3.5.7-.3-.9,0,0,.1.5.1.4,0-.4,0,.5,0,.4.1-.4-.1.5-.1.4.2-.3-.2.4-.2.3.2-.2-.4.3-.3.3.3-.1-.4.2-.3.2.3-.1-.5.1-.3.1.4,0h-.5c1.3.2.4,0,.1-.1-.7-.2.9.4-.2-.2-.7-.4.7.6-.2-.2-.3-.4-.3-.3.2.2-.1-.2-.2-.3-.3-.5.3.7.3.8.2.3.1.8.1.9.1.4s0-.4-.1.4c.1-.5.1-.4-.1.3a4.637,4.637,0,0,0-1.6-6.2c-2.2-1.2-5.1-.7-6.2,1.5Z" fill="#24bdff"/>
        </g>
      </g>
      <g id="Group_508" data-name="Group 508">
        <g id="Group_507" data-name="Group 507">
          <path id="Path_2930" data-name="Path 2930" d="M1891.3,711.4a9.218,9.218,0,0,0-8.1,6,9.37,9.37,0,0,0,1.4,9.4c5.2,5.8,15.3,1.6,15.9-5.8s-9.3-12.2-14.6-6.7c-5.7,6,2.8,15.7,9.5,11.5a2.722,2.722,0,0,0,1-.8c.3-.3,1.3-1.5.7-.7a6.921,6.921,0,0,0,1.7-3.9,6.115,6.115,0,0,0-2.5-5.4c-4.7-3.5-10.9,1.5-9.4,6.9a4.593,4.593,0,0,0,4.3,3.3c1.6,0,3.1,0,4.7.1a4.614,4.614,0,0,0,4.5-4.5c.5-7.9-10.5-11.4-15-5.1-4.2,6,.8,14.8,8.2,13.8,6.6-.9,11-8.9,6.8-14.5-3.7-4.9-11.8-4.9-15.6-.1-4.5,5.7-.3,14.2,6.4,15.6s12.4-4.8,11.8-11.3c-.6-6.9-7.6-10.9-14.1-8.8a11.043,11.043,0,0,0-6.1,15.9c4.2,7.3,15.4,6.3,18.2-1.7,2.8-7.9-6.5-15-13.6-11-5,2.9-.5,10.7,4.5,7.8-.2.1.5.1-.1,0a1.423,1.423,0,0,1,.4.2l.3.3c-.2-.3.1-.2,0,0-.3.6.1-.2,0-.1.3-.2-.4.3-.4.3-.2.1-1.3.4-.8.2.1,0-.7-.2-.2,0a1.956,1.956,0,0,1-.9-1.5,1.705,1.705,0,0,1,.4-1.5,2.75,2.75,0,0,1,2.9-.3c.2.1.3.5.4.7a2.036,2.036,0,0,1-.4,1.6s-.4.4-.2.3c-.4.2-.5.2-.1.1-.7.1-.1.1-.5-.1a1.631,1.631,0,0,1-.9-.8c.1.1-.1-.5-.2-.5-.3-.7.2.2-.1.2.2,0,.2-.5-.2.1,0,0,.6-.3.2-.2s.4-.1.5-.2c.7-.1-.6.1.1,0h.7c-.8,0,.5.2-.2-.1.6.2.1.2.1,0,.1-.2.3.7.2.2,0,0-.2-.9-.1-.9.1.2-.3.7-.1.5l-.4.4s-.6.3-.3.1c.2-.1-.4-.1-.2,0a2.118,2.118,0,0,0,.7.3c.3.1-.5-.6-.1,0-.2-.3.5-.6.1-.3a2.4,2.4,0,0,1-.8.6c-.3.1-.8-.2-.4,0,.5.3,0,.1,0,0,0-.2-.3-1.7-.3-.5l4.5-4.5c-1.6,0-3.1,0-4.7-.1,1.4,1.1,2.9,2.2,4.3,3.3-.8,1.1-1.6,2.3-2.4,3.4-.8-.2-1.5-.4-2.3-.6a2.863,2.863,0,0,1-.5-4.1c-1.2,1.3-.9,1.3.8-.3a2.855,2.855,0,0,1,1.3,0l-.1-.1c.1.1.2.3.3.4-.1,1,.2,1.8-.9,2.5-.3.2-1.1.2-.3.1-.5.1,0,.2.2.2-.3,0-.4-.5-.4-.7.1,1.2,0-.2.1-.3.1-.3.1-.2-.2.3.2-.3.1-.3-.2.1.4-.3-.6,0-.1,0-.5.1-.6.2-.2.1h-.1a2.093,2.093,0,0,0,.6.4c.1.4.1.4,0-.1v.2a3.176,3.176,0,0,1,.3-.9c-.2.7.5-.5,0,.1-.4.2-.3.2.1-.1a1.422,1.422,0,0,1-.6.2,4.614,4.614,0,0,0,4.5-4.5c.8-1.8-1.3-4.3-3.7-4.1Z" fill="#24bdff"/>
        </g>
      </g>
      <g id="Group_510" data-name="Group 510">
        <g id="Group_509" data-name="Group 509">
          <path id="Path_2931" data-name="Path 2931" d="M2099.1,1498.4c-7.4.3-11.3,7.7-9.7,14.5,1.8,8,10.6,10.7,17.4,7.1,7.7-4.1,10.9-14.2,6.4-21.8-4.3-7.3-15.8-8.5-19.9-.3-2.6,5.2,5.1,9.7,7.8,4.5,1.6-3.1,4.6,0,5.1,2.3a7.044,7.044,0,0,1-3.8,7.5c-5.2,2.5-4.8-4.6-3.2-4.7,5.6-.3,5.7-9.3-.1-9.1Z" fill="#24bdff"/>
        </g>
      </g>
      <g id="Group_512" data-name="Group 512">
        <g id="Group_511" data-name="Group 511">
          <path id="Path_2932" data-name="Path 2932" d="M1085.3,1533c-8.3,2.5-10.6,14.7-2.7,19.2,7.9,4.4,18.5-3.3,15.2-12.2a10.967,10.967,0,0,0-10.4-7.3,9.259,9.259,0,0,0-8.4,7.1,10.387,10.387,0,0,0,2.8,10.2c3.5,3.1,8.6,2.6,12-.3,3.5-3,5.3-8.9,2.2-12.8-3.7-4.7-12.5-1.1-11.7,4.9.3,2.4,1.8,4.5,4.5,4.5,2.2,0,4.8-2.1,4.5-4.5-.2-1.3-.3,1.2-1.1,1.6a2.748,2.748,0,0,1-2,.2l-1.6-1.6c-.2-.4-.1.5,0-.1.2-.8-.2.6-.2.6.2-.6-.5.4-.1,0-.1.1-1,.8-.5.5-.3.2-.3.4-.6.2.2.1.4-.1.7,0-.2-.1,0,.1-.1,0-.2-.3.1.5-.1-.2.2,1-.1-.2-.1-.4v-.4c0,.9,0-.1.1-.4.2-.4.2-.5.1-.2s-.1.2.1-.2c-.1.1-.2.2-.2.3h0c.5-.2.4-.1,0,0-.5.1.3,0,.3,0a3.281,3.281,0,0,1,.6.3,2.022,2.022,0,0,1,.9,1.4c-.1-.5-.1.8-.1.2,0-.5-.3.3,0,0a1.9,1.9,0,0,1-1.1.7c-.8.2.1,0-.4.1h-.7c.4.1.4.1.1,0-.5-.1.3.2-.4-.1.6.2-.4-.4,0,.1-.5-.7-.1.2-.3-.6.2.7,0-.4,0-.6,0,.7.1-.5.2-.6-.2.7.3-.5.3-.6-.3.6.2-.4,0-.1.1-.1,0-.1.5-.2,5.7-1.7,3.3-10.4-2.3-8.7Z" fill="#24bdff"/>
        </g>
      </g>
      <g id="Group_514" data-name="Group 514">
        <g id="Group_513" data-name="Group 513">
          <path id="Path_2933" data-name="Path 2933" d="M1062,1726.3c-8.6,2.6-13.7,11.5-12.4,20.3,1.3,8.9,9.6,14.3,18.3,13.4,8.8-.9,16.3-7.9,15.7-17.1-.6-9.4-8.8-17.3-18.2-17.1-5.8.1-5.8,9.1,0,9a9.359,9.359,0,0,1,9.2,8.1c.6,4.7-3.4,7.8-7.7,8.2-10.1.9-11.3-13.4-2.5-16.1,5.6-1.7,3.2-10.4-2.4-8.7Z" fill="#24bdff"/>
        </g>
      </g>
      <g id="Group_516" data-name="Group 516">
        <g id="Group_515" data-name="Group 515">
          <path id="Path_2934" data-name="Path 2934" d="M2256.7,938.9c9.7-5,19.3,8.8,9.3,15.3-9.3,6.1-17.9-6.8-11-14.1,4-4.2-2.4-10.6-6.4-6.4a19.161,19.161,0,0,0-1.4,24.2c5.7,8,16.5,8.9,24.3,3.3s10.6-16.2,4.8-24.3a19.21,19.21,0,0,0-24.2-5.9c-5,2.8-.5,10.6,4.6,7.9Z" fill="#24bdff"/>
        </g>
      </g>
    </g>
  </g>
</svg>
